<svg width="25" height="23" viewBox="0 0 25 23" fill="none" xmlns="http://www.w3.org/2000/svg">
<rect x="20.541" y="16.0117" width="2" height="2.1856" transform="rotate(180 20.541 16.0117)" fill="black"/>
<rect x="16.5742" y="11.6406" width="2" height="2.1856" transform="rotate(180 16.5742 11.6406)" fill="black"/>
<rect width="2" height="2.1856" transform="matrix(1 -8.74228e-08 -8.74228e-08 -1 8.57129 11.6406)" fill="black"/>
<rect x="12.6504" y="7.26953" width="2" height="2.1856" transform="rotate(180 12.6504 7.26953)" fill="black"/>
<rect width="2" height="2.1856" transform="matrix(1 -8.74228e-08 -8.74228e-08 -1 12.5723 7.26953)" fill="black"/>
<rect width="2" height="2.1856" transform="matrix(1 -8.74228e-08 -8.74228e-08 -1 4.60449 16.0117)" fill="black"/>
<rect x="18.5752" y="11.6406" width="2" height="2.1856" transform="rotate(180 18.5752 11.6406)" fill="black"/>
<rect width="2" height="2.1856" transform="matrix(1 -8.74228e-08 -8.74228e-08 -1 6.57031 11.6406)" fill="black"/>
<rect x="14.6504" y="7.26953" width="2" height="2.1856" transform="rotate(180 14.6504 7.26953)" fill="black"/>
<rect width="2" height="2.1856" transform="matrix(1 -8.74228e-08 -8.74228e-08 -1 10.5723 7.26953)" fill="black"/>
<rect x="20.541" y="13.8262" width="2" height="2.1856" transform="rotate(180 20.541 13.8262)" fill="black"/>
<rect width="2" height="2.1856" transform="matrix(1 -8.74228e-08 -8.74228e-08 -1 4.60352 13.8262)" fill="black"/>
<rect x="16.5742" y="9.45508" width="2" height="2.1856" transform="rotate(180 16.5742 9.45508)" fill="black"/>
<rect width="2" height="2.1856" transform="matrix(1 -8.74228e-08 -8.74228e-08 -1 8.57129 9.45508)" fill="black"/>
<rect x="18.541" y="13.8262" width="2" height="2.1856" transform="rotate(180 18.541 13.8262)" fill="black"/>
<rect width="2" height="2.1856" transform="matrix(1 -8.74228e-08 -8.74228e-08 -1 6.60449 13.8262)" fill="black"/>
<rect x="14.5732" y="9.45508" width="2" height="2.1856" transform="rotate(180 14.5732 9.45508)" fill="black"/>
<rect width="2" height="2.1856" transform="matrix(1 -8.74228e-08 -8.74228e-08 -1 10.5723 9.45508)" fill="black"/>
<rect x="1.65039" y="1.54785" width="22" height="20" stroke="black" stroke-width="2"/>
</svg>
