<svg width="25" height="25" viewBox="0 0 25 25" fill="none" xmlns="http://www.w3.org/2000/svg">
<rect x="0.848633" y="0.587891" width="2" height="2.1856" fill="black"/>
<rect width="2" height="2.1856" transform="matrix(-1 0 0 1 24.6191 0.587891)" fill="black"/>
<rect x="2.76367" y="0.587891" width="2" height="2.1856" fill="black"/>
<rect width="2" height="2.1856" transform="matrix(-1 0 0 1 22.7031 0.587891)" fill="black"/>
<rect x="4.76562" y="2.77344" width="2" height="2.1856" fill="black"/>
<rect width="2" height="2.1856" transform="matrix(-1 0 0 1 20.7031 2.77344)" fill="black"/>
<rect x="8.73242" y="7.14453" width="2" height="2.1856" fill="black"/>
<rect width="2" height="2.1856" transform="matrix(-1 0 0 1 16.7354 7.14453)" fill="black"/>
<rect x="12.6562" y="11.5156" width="2" height="2.1856" fill="black"/>
<rect width="2" height="2.1856" transform="matrix(-1 0 0 1 12.7344 11.5156)" fill="black"/>
<rect x="16.6582" y="15.8867" width="2" height="2.1856" fill="black"/>
<rect width="2" height="2.1856" transform="matrix(-1 0 0 1 8.73242 15.8867)" fill="black"/>
<rect x="20.6934" y="20.2168" width="2" height="2.1856" fill="black"/>
<rect width="2" height="2.1856" transform="matrix(-1 0 0 1 4.69727 20.2168)" fill="black"/>
<rect x="2.76367" y="2.77344" width="2" height="2.1856" fill="black"/>
<rect width="2" height="2.1856" transform="matrix(-1 0 0 1 22.7031 2.77344)" fill="black"/>
<rect x="6.73145" y="7.14453" width="2" height="2.1856" fill="black"/>
<rect width="2" height="2.1856" transform="matrix(-1 0 0 1 18.7363 7.14453)" fill="black"/>
<rect x="10.6562" y="11.5156" width="2" height="2.1856" fill="black"/>
<rect width="2" height="2.1856" transform="matrix(-1 0 0 1 14.7344 11.5156)" fill="black"/>
<rect x="14.6572" y="15.8867" width="2" height="2.1856" fill="black"/>
<rect width="2" height="2.1856" transform="matrix(-1 0 0 1 10.7334 15.8867)" fill="black"/>
<rect x="18.6934" y="20.2168" width="2" height="2.1856" fill="black"/>
<rect width="2" height="2.1856" transform="matrix(-1 0 0 1 6.69727 20.2168)" fill="black"/>
<rect x="4.76562" y="4.95898" width="2" height="2.1856" fill="black"/>
<rect width="2" height="2.1856" transform="matrix(-1 0 0 1 20.7031 4.95898)" fill="black"/>
<rect x="8.73242" y="9.33008" width="2" height="2.1856" fill="black"/>
<rect width="2" height="2.1856" transform="matrix(-1 0 0 1 16.7354 9.33008)" fill="black"/>
<rect x="12.6562" y="13.7012" width="2" height="2.1856" fill="black"/>
<rect width="2" height="2.1856" transform="matrix(-1 0 0 1 12.7344 13.7012)" fill="black"/>
<rect x="16.6582" y="18.0723" width="2" height="2.1856" fill="black"/>
<rect width="2" height="2.1856" transform="matrix(-1 0 0 1 8.73242 18.0723)" fill="black"/>
<rect x="20.6934" y="22.4023" width="2" height="2.1856" fill="black"/>
<rect width="2" height="2.1856" transform="matrix(-1 0 0 1 4.69727 22.4023)" fill="black"/>
<rect x="6.76562" y="4.95898" width="2" height="2.1856" fill="black"/>
<rect width="2" height="2.1856" transform="matrix(-1 0 0 1 18.7021 4.95898)" fill="black"/>
<rect x="10.7334" y="9.33008" width="2" height="2.1856" fill="black"/>
<rect width="2" height="2.1856" transform="matrix(-1 0 0 1 14.7344 9.33008)" fill="black"/>
<rect x="14.6572" y="13.7012" width="2" height="2.1856" fill="black"/>
<rect width="2" height="2.1856" transform="matrix(-1 0 0 1 10.7334 13.7012)" fill="black"/>
<rect x="18.6592" y="18.0723" width="2" height="2.1856" fill="black"/>
<rect width="2" height="2.1856" transform="matrix(-1 0 0 1 6.73145 18.0723)" fill="black"/>
<rect x="22.6943" y="22.4023" width="2" height="2.1856" fill="black"/>
<rect width="2" height="2.1856" transform="matrix(-1 0 0 1 2.69531 22.4023)" fill="black"/>
</svg>
