<svg width="157" height="158" viewBox="0 0 157 158" fill="none" xmlns="http://www.w3.org/2000/svg">
<path d="M103.71 108.311H59.7725V155.618H103.71V108.311Z" fill="black"/>
<path d="M38.2467 157.397H118.753V117.779H38.2467V157.397Z" fill="black"/>
<path d="M17.0056 157.392L139.983 157.392V131.96H17.0056V157.392Z" fill="black"/>
<path d="M0.5 157.392L156.5 157.392V141.422L0.5 141.422V157.392Z" fill="black"/>
<path d="M87.1237 89.5615H69.7981V109.249H87.1237V89.5615Z" fill="#42AF04"/>
<path d="M92.7951 71.0552H75.9893V89.0864H92.7951V71.0552Z" fill="#42AF04"/>
<path d="M92.0559 71.7271H75.25V89.7582H92.0559V71.7271Z" fill="#42AF04"/>
<path d="M89.1106 53.6841H72.3047V71.7153H89.1106V53.6841Z" fill="#42AF04"/>
<path d="M78.2888 43.3896H65.2888V55.3896H78.2888V43.3896Z" fill="#42AF04"/>
<path d="M71.2888 35.3896H57.2888V45.3896H71.2888V35.3896Z" fill="#42AF04"/>
<path d="M61.2888 28.3896H48.2888V37.3896H61.2888V28.3896Z" fill="#42AF04"/>
<path d="M54.101 22.231H47.783V29.99H54.101V22.231Z" fill="#42AF04"/>
<path d="M50.8324 0.389648H45.7156V23.389H50.8324V0.389648Z" fill="#42AF04"/>
<path d="M70.8377 79.0112H58.5481V90.7425H70.8377V79.0112Z" fill="#42AF04"/>
<path d="M65.9981 75.3057H53.3503V87.9866H65.9981V75.3057Z" fill="#42AF04"/>
<path d="M55.776 73.9854H49.4001V80.3779H55.776V73.9854Z" fill="#42AF04"/>
</svg>
