<svg width="326" height="41" viewBox="0 0 326 41" fill="none" xmlns="http://www.w3.org/2000/svg">
<rect x="0.923828" y="0.491699" width="324.338" height="40.0073" rx="20.0037" fill="#A3EC47"/>
<path d="M49.0208 25.4932H46.97V21.2275H42.9709V25.4932H40.9202V15.54H42.9709V19.5732H46.97V15.54H49.0208V25.4932ZM56.8069 21.1797H52.8694V23.8457H57.4905V25.4932H50.8186V15.54L57.4768 15.54V17.2012L52.8694 17.2012V19.5732L56.8069 19.5732V21.1797ZM60.7444 23.8457H65.0989V25.4932L58.6936 25.4932L58.6936 15.54H60.7444L60.7444 23.8457ZM68.3323 21.9863V25.4932H66.2815V15.54H70.1643C70.9117 15.54 71.568 15.6768 72.1331 15.9502C72.7027 16.2236 73.1402 16.6133 73.4456 17.1191C73.7509 17.6204 73.9036 18.1924 73.9036 18.835C73.9036 19.8102 73.5686 20.5804 72.8987 21.1455C72.2333 21.7061 71.3105 21.9863 70.1301 21.9863H68.3323ZM68.3323 20.3252H70.1643C70.7066 20.3252 71.1191 20.1976 71.4016 19.9424C71.6887 19.6872 71.8323 19.3226 71.8323 18.8486C71.8323 18.361 71.6887 17.9668 71.4016 17.666C71.1145 17.3652 70.718 17.2103 70.2122 17.2012H68.3323V20.3252ZM81.4846 15.54L84.0413 22.7588L86.5842 15.54H89.2776V25.4932H87.22V22.7725L87.425 18.0762L84.7385 25.4932H83.3303L80.6506 18.083L80.8557 22.7725V25.4932H78.8049V15.54H81.4846ZM96.8108 23.4424H93.2151L92.5315 25.4932H90.3508L94.0559 15.54H95.9563L99.6819 25.4932H97.5012L96.8108 23.4424ZM93.7688 21.7813H96.2571L95.0061 18.0557L93.7688 21.7813ZM102.792 25.4932H100.741V15.54H102.792V25.4932ZM112.793 25.4932H110.742L106.75 18.9443V25.4932H104.699V15.54H106.75L110.749 22.1025V15.54H112.793V25.4932ZM121.871 17.2012H118.823V25.4932H116.772V17.2012H113.764V15.54H121.871V17.2012ZM127.846 23.4424H124.25L123.567 25.4932H121.386L125.091 15.54H126.991L130.717 25.4932H128.536L127.846 23.4424ZM124.804 21.7813H127.292L126.041 18.0557L124.804 21.7813ZM133.827 25.4932H131.777V15.54H133.827V25.4932ZM143.828 25.4932H141.778L137.785 18.9443V25.4932H135.735V15.54H137.785L141.784 22.1025V15.54H143.828V25.4932ZM151.362 23.4424H147.766L147.082 25.4932H144.902L148.607 15.54H150.507L154.233 25.4932H152.052L151.362 23.4424ZM148.32 21.7813H150.808L149.557 18.0557L148.32 21.7813ZM163.256 25.4932H161.205L157.213 18.9443V25.4932L155.162 25.4932V15.54H157.213L161.212 22.1025V15.54H163.256V25.4932ZM172.861 22.1777C172.783 23.2487 172.387 24.0918 171.671 24.707C170.96 25.3223 170.021 25.6299 168.855 25.6299C167.579 25.6299 166.574 25.2015 165.84 24.3447C165.111 23.4834 164.746 22.3031 164.746 20.8037V20.1953C164.746 19.2383 164.915 18.3952 165.252 17.666C165.589 16.9368 166.07 16.3786 166.695 15.9912C167.323 15.5993 168.053 15.4033 168.882 15.4033C170.031 15.4033 170.956 15.7109 171.657 16.3262C172.359 16.9414 172.765 17.805 172.874 18.917H170.823C170.773 18.2744 170.593 17.8096 170.283 17.5225C169.978 17.2308 169.511 17.085 168.882 17.085C168.198 17.085 167.686 17.3311 167.344 17.8232C167.007 18.3109 166.834 19.0697 166.824 20.0996V20.8516C166.824 21.9271 166.986 22.7132 167.31 23.21C167.638 23.7067 168.153 23.9551 168.855 23.9551C169.488 23.9551 169.96 23.8115 170.27 23.5244C170.584 23.2327 170.764 22.7839 170.81 22.1777H172.861ZM180.196 21.1797L176.258 21.1797V23.8457L180.879 23.8457V25.4932L174.207 25.4932V15.54H180.865V17.2012H176.258V19.5732H180.196V21.1797ZM193.744 20.7422C193.744 21.722 193.571 22.5811 193.225 23.3193C192.878 24.0576 192.382 24.6273 191.735 25.0283C191.092 25.4294 190.354 25.6299 189.52 25.6299C188.695 25.6299 187.959 25.4316 187.312 25.0352C186.665 24.6387 186.163 24.0736 185.808 23.3398C185.452 22.6016 185.272 21.7539 185.268 20.7969V20.3047C185.268 19.3249 185.443 18.4635 185.794 17.7207C186.15 16.9733 186.649 16.4014 187.291 16.0049C187.938 15.6038 188.677 15.4033 189.506 15.4033C190.336 15.4033 191.072 15.6038 191.714 16.0049C192.361 16.4014 192.86 16.9733 193.211 17.7207C193.567 18.4635 193.744 19.3226 193.744 20.2979V20.7422ZM191.666 20.291C191.666 19.2474 191.479 18.4544 191.106 17.9121C190.732 17.3698 190.199 17.0986 189.506 17.0986C188.818 17.0986 188.287 17.3675 187.913 17.9053C187.54 18.4385 187.351 19.2223 187.346 20.2568V20.7422C187.346 21.7585 187.533 22.5469 187.906 23.1074C188.28 23.668 188.818 23.9482 189.52 23.9482C190.208 23.9482 190.737 23.6794 191.106 23.1416C191.475 22.5993 191.662 21.8109 191.666 20.7764V20.291ZM201.223 21.4258H197.285V25.4932H195.235V15.54L201.715 15.54V17.2012H197.285V19.7715H201.223V21.4258ZM213.473 17.2012H210.424V25.4932H208.373V17.2012H205.365V15.54H213.473V17.2012ZM222.749 25.4932H220.698V21.2275H216.699V25.4932H214.649V15.54H216.699V19.5732H220.698V15.54H222.749V25.4932ZM226.728 25.4932H224.677V15.54H226.728V25.4932ZM233.796 22.8818C233.796 22.4945 233.659 22.1982 233.386 21.9932C233.113 21.7835 232.62 21.5648 231.909 21.3369C231.198 21.1045 230.636 20.8766 230.221 20.6533C229.091 20.0426 228.526 19.2201 228.526 18.1855C228.526 17.6478 228.676 17.1693 228.977 16.75C229.282 16.3262 229.717 15.9958 230.282 15.7588C230.852 15.5218 231.49 15.4033 232.197 15.4033C232.907 15.4033 233.541 15.5332 234.097 15.793C234.653 16.0482 235.084 16.4105 235.389 16.8799C235.699 17.3493 235.854 17.8825 235.854 18.4795H233.803C233.803 18.0238 233.659 17.6706 233.372 17.4199C233.085 17.1647 232.682 17.0371 232.162 17.0371C231.661 17.0371 231.271 17.1442 230.993 17.3584C230.715 17.568 230.576 17.846 230.576 18.1924C230.576 18.516 230.738 18.7871 231.062 19.0059C231.39 19.2246 231.871 19.4297 232.504 19.6211C233.671 19.972 234.521 20.4072 235.054 20.9268C235.587 21.4463 235.854 22.0934 235.854 22.8682C235.854 23.7295 235.528 24.4063 234.876 24.8984C234.225 25.3861 233.347 25.6299 232.244 25.6299C231.479 25.6299 230.781 25.4909 230.153 25.2129C229.524 24.9303 229.043 24.5452 228.71 24.0576C228.382 23.57 228.218 23.0049 228.218 22.3623H230.276C230.276 23.4606 230.932 24.0098 232.244 24.0098C232.732 24.0098 233.113 23.9118 233.386 23.7158C233.659 23.5153 233.796 23.2373 233.796 22.8818ZM242.785 21.9863V25.4932H240.735V15.54H244.617C245.365 15.54 246.021 15.6768 246.586 15.9502C247.156 16.2236 247.593 16.6133 247.899 17.1191C248.204 17.6204 248.357 18.1924 248.357 18.835C248.357 19.8102 248.022 20.5804 247.352 21.1455C246.686 21.7061 245.764 21.9863 244.583 21.9863H242.785ZM242.785 20.3252H244.617C245.16 20.3252 245.572 20.1976 245.855 19.9424C246.142 19.6872 246.285 19.3226 246.285 18.8486C246.285 18.361 246.142 17.9668 245.855 17.666C245.568 17.3652 245.171 17.2103 244.665 17.2012H242.785V20.3252ZM251.823 23.8457L256.177 23.8457V25.4932L249.772 25.4932V15.54H251.823V23.8457ZM263.115 23.4424H259.52L258.836 25.4932H256.656L260.361 15.54H262.261L265.987 25.4932H263.806L263.115 23.4424ZM260.073 21.7813H262.562L261.311 18.0557L260.073 21.7813ZM275.01 25.4932H272.959L268.967 18.9443V25.4932H266.916V15.54H268.967L272.966 22.1025V15.54H275.01V25.4932ZM284.088 17.2012L281.039 17.2012V25.4932H278.989V17.2012H275.981V15.54L284.088 15.54V17.2012Z" fill="black"/>
</svg>
