<svg width="223" height="231" viewBox="0 0 223 231" fill="none" xmlns="http://www.w3.org/2000/svg">
<path d="M122.557 7V3.5L119.057 3.5L111.057 3.5L107.557 3.5V7V15V18.5H111.057H119.057H122.557V15V7Z" fill="#EE2847" stroke="black" stroke-width="7"/>
<path d="M114.552 7.00439V3.50439L111.052 3.50439L103.052 3.50439L99.5522 3.50439V7.00439V15.0044V18.5044H103.052H111.052H114.552V15.0044V7.00439Z" fill="#EE2847" stroke="black" stroke-width="7"/>
<path d="M146.573 15.0117V11.5117H143.073L135.073 11.5117H131.573V15.0117V23.0117V26.5117H135.073H143.073H146.573V23.0117V15.0117Z" fill="#EE2847" stroke="black" stroke-width="7"/>
<path d="M138.569 15.0059V11.5059H135.069L127.069 11.5059H123.569V15.0059V23.0059V26.5059H127.069H135.069H138.569V23.0059V15.0059Z" fill="#EE2847" stroke="black" stroke-width="7"/>
<path d="M130.565 15.0098V11.5098H127.065L119.065 11.5098H115.565V15.0098V23.0098V26.5098H119.065H127.065H130.565V23.0098V15.0098Z" fill="#EE2847" stroke="black" stroke-width="7"/>
<path d="M122.561 15.0044V11.5044H119.061L111.061 11.5044H107.561V15.0044V23.0044V26.5044H111.061H119.061H122.561V23.0044V15.0044Z" fill="#EE2847" stroke="black" stroke-width="7"/>
<path d="M114.557 15.0083V11.5083H111.057L103.057 11.5083H99.5566V15.0083V23.0083V26.5083H103.057H111.057H114.557V23.0083V15.0083Z" fill="#EE2847" stroke="black" stroke-width="7"/>
<path d="M162.576 23.0176V19.5176H159.076H151.076L147.576 19.5176V23.0176V31.0176V34.5176H151.076H159.076H162.576V31.0176V23.0176Z" fill="#EE2847" stroke="black" stroke-width="7"/>
<path d="M154.572 23.0117V19.5117H151.072H143.072L139.572 19.5117V23.0117V31.0117V34.5117H143.072H151.072H154.572V31.0117V23.0117Z" fill="#EE2847" stroke="black" stroke-width="7"/>
<path d="M146.567 23.0156V19.5156H143.067H135.067L131.567 19.5156V23.0156V31.0156V34.5156H135.067H143.067H146.567V31.0156V23.0156Z" fill="#EE2847" stroke="black" stroke-width="7"/>
<path d="M138.563 23.0098V19.5098H135.063H127.063L123.563 19.5098V23.0098V31.0098V34.5098H127.063H135.063H138.563V31.0098V23.0098Z" fill="#EE2847" stroke="black" stroke-width="7"/>
<path d="M130.559 23.0142V19.5142H127.059H119.059L115.559 19.5142V23.0142V31.0142V34.5142H119.059H127.059H130.559V31.0142V23.0142Z" fill="#EE2847" stroke="black" stroke-width="7"/>
<path d="M122.555 23.0083V19.5083H119.055H111.055L107.555 19.5083V23.0083V31.0083V34.5083H111.055H119.055H122.555V31.0083V23.0083Z" fill="#EE2847" stroke="black" stroke-width="7"/>
<path d="M114.551 23.0127V19.5127H111.051H103.051L99.5508 19.5127V23.0127V31.0127V34.5127H103.051H111.051H114.551V31.0127V23.0127Z" fill="#EE2847" stroke="black" stroke-width="7"/>
<path d="M162.58 31.0215V27.5215H159.08H151.08L147.58 27.5215V31.0215V39.0215V42.5215H151.08H159.08H162.58V39.0215V31.0215Z" fill="#EE2847" stroke="black" stroke-width="7"/>
<path d="M154.576 31.0156V27.5156H151.076H143.076L139.576 27.5156V31.0156V39.0156V42.5156H143.076H151.076H154.576V39.0156V31.0156Z" fill="#EE2847" stroke="black" stroke-width="7"/>
<path d="M146.572 31.02V27.52H143.072H135.072L131.572 27.52V31.02V39.02V42.52H135.072H143.072H146.572V39.02V31.02Z" fill="#EE2847" stroke="black" stroke-width="7"/>
<path d="M138.567 31.0142V27.5142H135.067H127.067L123.567 27.5142V31.0142V39.0142V42.5142H127.067H135.067H138.567V39.0142V31.0142Z" fill="#EE2847" stroke="black" stroke-width="7"/>
<path d="M130.563 31.0186V27.5186H127.063H119.063L115.563 27.5186V31.0186V39.0186V42.5186H119.063H127.063H130.563V39.0186V31.0186Z" fill="#EE2847" stroke="black" stroke-width="7"/>
<path d="M122.559 31.0127V27.5127H119.059H111.059L107.559 27.5127V31.0127V39.0127V42.5127H111.059H119.059H122.559V39.0127V31.0127Z" fill="#EE2847" stroke="black" stroke-width="7"/>
<path d="M114.555 31.0166V27.5166H111.055H103.055L99.5547 27.5166V31.0166V39.0166V42.5166H103.055H111.055H114.555V39.0166V31.0166Z" fill="#EE2847" stroke="black" stroke-width="7"/>
<path d="M106.551 31.021V27.521H103.051H95.0508L91.5508 27.521V31.021V39.021V42.521H95.0508H103.051H106.551V39.021V31.021Z" fill="#EE2847" stroke="black" stroke-width="7"/>
<path d="M90.542 31.0195V27.5195H87.042H79.042L75.542 27.5195V31.0195V39.0195V42.5195H79.042H87.042H90.542V39.0195V31.0195Z" fill="#DD1F2C" stroke="black" stroke-width="7"/>
<path d="M82.5381 31.0137V27.5137H79.0381H71.0381L67.5381 27.5137V31.0137V39.0137V42.5137H71.0381H79.0381H82.5381V39.0137V31.0137Z" fill="#DD1F2C" stroke="black" stroke-width="7"/>
<path d="M162.574 39.0259V35.5259H159.074H151.074H147.574V39.0259V47.0259V50.5259H151.074H159.074H162.574V47.0259V39.0259Z" fill="#EE2847" stroke="black" stroke-width="7"/>
<path d="M154.57 39.02V35.52H151.07H143.07H139.57V39.02V47.02V50.52H143.07H151.07H154.57V47.02V39.02Z" fill="#EE2847" stroke="black" stroke-width="7"/>
<path d="M146.566 39.0244V35.5244H143.066H135.066H131.566V39.0244V47.0244V50.5244H135.066H143.066H146.566V47.0244V39.0244Z" fill="#EE2847" stroke="black" stroke-width="7"/>
<path d="M138.562 39.0186V35.5186H135.062H127.062H123.562V39.0186V47.0186V50.5186H127.062H135.062H138.562V47.0186V39.0186Z" fill="#EE2847" stroke="black" stroke-width="7"/>
<path d="M130.558 39.0225V35.5225H127.058H119.058H115.558V39.0225V47.0225V50.5225H119.058H127.058H130.558V47.0225V39.0225Z" fill="#EE2847" stroke="black" stroke-width="7"/>
<path d="M122.553 39.0166V35.5166H119.053H111.053H107.553V39.0166V47.0166V50.5166H111.053H119.053H122.553V47.0166V39.0166Z" fill="#EE2847" stroke="black" stroke-width="7"/>
<path d="M114.549 39.021V35.521H111.049H103.049H99.5488V39.021V47.021V50.521H103.049H111.049H114.549V47.021V39.021Z" fill="#EE2847" stroke="black" stroke-width="7"/>
<path d="M106.545 39.0254V35.5254H103.045H95.0449H91.5449V39.0254V47.0254V50.5254H95.0449H103.045H106.545V47.0254V39.0254Z" fill="#DD1F2C" stroke="black" stroke-width="7"/>
<path d="M98.5405 39.0195V35.5195H95.0405H87.0405H83.5405V39.0195V47.0195V50.5195H87.0405H95.0405H98.5405V47.0195V39.0195Z" fill="#DD1F2C" stroke="black" stroke-width="7"/>
<path d="M90.5366 39.0234V35.5234H87.0366H79.0366H75.5366V39.0234V47.0234V50.5234H79.0366H87.0366H90.5366V47.0234V39.0234Z" fill="#DD1F2C" stroke="black" stroke-width="7"/>
<path d="M82.5322 39.0176V35.5176H79.0322H71.0322H67.5322V39.0176V47.0176V50.5176H71.0322H79.0322H82.5322V47.0176V39.0176Z" fill="#DD1F2C" stroke="black" stroke-width="7"/>
<path d="M74.5278 39.022V35.522H71.0278H63.0278H59.5278V39.022V47.022V50.522H63.0278H71.0278H74.5278V47.022V39.022Z" fill="#DD1F2C" stroke="black" stroke-width="7"/>
<path d="M162.579 47.0298V43.5298H159.079H151.079H147.579V47.0298V55.0298V58.5298H151.079H159.079H162.579V55.0298V47.0298Z" fill="#EE2847" stroke="black" stroke-width="7"/>
<path d="M154.574 47.0244V43.5244H151.074H143.074H139.574V47.0244V55.0244V58.5244H143.074H151.074H154.574V55.0244V47.0244Z" fill="#EE2847" stroke="black" stroke-width="7"/>
<path d="M146.57 47.0283V43.5283H143.07H135.07H131.57V47.0283V55.0283V58.5283H135.07H143.07H146.57V55.0283V47.0283Z" fill="#EE2847" stroke="black" stroke-width="7"/>
<path d="M138.566 47.0225V43.5225H135.066H127.066H123.566V47.0225V55.0225V58.5225H127.066H135.066H138.566V55.0225V47.0225Z" fill="#EE2847" stroke="black" stroke-width="7"/>
<path d="M130.562 47.0269V43.5269H127.062H119.062H115.562V47.0269V55.0269V58.5269H119.062H127.062H130.562V55.0269V47.0269Z" fill="#EE2847" stroke="black" stroke-width="7"/>
<path d="M122.558 47.021V43.521H119.058H111.058H107.558V47.021V55.021V58.521H111.058H119.058H122.558V55.021V47.021Z" fill="#EE2847" stroke="black" stroke-width="7"/>
<path d="M114.553 47.0254V43.5254H111.053H103.053H99.5532V47.0254V55.0254V58.5254H103.053H111.053H114.553V55.0254V47.0254Z" fill="#EE2847" stroke="black" stroke-width="7"/>
<path d="M106.549 47.0293V43.5293H103.049H95.0488H91.5488V47.0293V55.0293V58.5293H95.0488H103.049H106.549V55.0293V47.0293Z" fill="#DD1F2C" stroke="black" stroke-width="7"/>
<path d="M98.5449 47.0234V43.5234H95.0449H87.0449H83.5449V47.0234V55.0234V58.5234H87.0449H95.0449H98.5449V55.0234V47.0234Z" fill="#DD1F2C" stroke="black" stroke-width="7"/>
<path d="M90.5405 47.0278V43.5278H87.0405H79.0405H75.5405V47.0278V55.0278V58.5278H79.0405H87.0405H90.5405V55.0278V47.0278Z" fill="#DD1F2C" stroke="black" stroke-width="7"/>
<path d="M82.5366 47.022V43.522H79.0366H71.0366H67.5366V47.022V55.022V58.522H71.0366H79.0366H82.5366V55.022V47.022Z" fill="#DD1F2C" stroke="black" stroke-width="7"/>
<path d="M74.5322 47.0264V43.5264H71.0322H63.0322H59.5322V47.0264V55.0264V58.5264H63.0322H71.0322H74.5322V55.0264V47.0264Z" fill="#DD1F2C" stroke="black" stroke-width="7"/>
<path d="M66.5278 47.0303V43.5303H63.0278H55.0278H51.5278V47.0303V55.0303V58.5303H55.0278H63.0278H66.5278V55.0303V47.0303Z" fill="#DD1F2C" stroke="black" stroke-width="7"/>
<path d="M58.5239 47.0244V43.5244H55.0239H47.0239H43.5239V47.0244V55.0244V58.5244H47.0239H55.0239H58.5239V55.0244V47.0244Z" fill="#DD1F2C" stroke="black" stroke-width="7"/>
<path d="M50.5195 47.0288V43.5288H47.0195H39.0195H35.5195V47.0288V55.0288V58.5288H39.0195H47.0195H50.5195V55.0288V47.0288Z" fill="#DD1F2C" stroke="black" stroke-width="7"/>
<path d="M162.572 55.0342V51.5342H159.072H151.072H147.572V55.0342V63.0342V66.5342H151.072H159.072H162.572V63.0342V55.0342Z" fill="#EE2847" stroke="black" stroke-width="7"/>
<path d="M154.568 55.0283V51.5283H151.068H143.068H139.568V55.0283V63.0283V66.5283H143.068H151.068H154.568V63.0283V55.0283Z" fill="#EE2847" stroke="black" stroke-width="7"/>
<path d="M146.564 55.0327V51.5327H143.064H135.064H131.564V55.0327V63.0327V66.5327H135.064H143.064H146.564V63.0327V55.0327Z" fill="#EE2847" stroke="black" stroke-width="7"/>
<path d="M138.56 55.0269V51.5269H135.06H127.06H123.56V55.0269V63.0269V66.5269H127.06H135.06H138.56V63.0269V55.0269Z" fill="#EE2847" stroke="black" stroke-width="7"/>
<path d="M130.556 55.0308V51.5308H127.056H119.056H115.556V55.0308V63.0308V66.5308H119.056H127.056H130.556V63.0308V55.0308Z" fill="#EE2847" stroke="black" stroke-width="7"/>
<path d="M122.552 55.0254V51.5254H119.052H111.052H107.552V55.0254V63.0254V66.5254H111.052H119.052H122.552V63.0254V55.0254Z" fill="#EE2847" stroke="black" stroke-width="7"/>
<path d="M114.547 55.0293V51.5293H111.047H103.047H99.5474V55.0293V63.0293V66.5293H103.047H111.047H114.547V63.0293V55.0293Z" fill="#DD1F2C" stroke="black" stroke-width="7"/>
<path d="M106.543 55.0337V51.5337H103.043H95.043H91.543V55.0337V63.0337V66.5337H95.043H103.043H106.543V63.0337V55.0337Z" fill="#DD1F2C" stroke="black" stroke-width="7"/>
<path d="M98.5391 55.0278V51.5278H95.0391H87.0391H83.5391V55.0278V63.0278V66.5278H87.0391H95.0391H98.5391V63.0278V55.0278Z" fill="#DD1F2C" stroke="black" stroke-width="7"/>
<path d="M90.5347 55.0322V51.5322H87.0347H79.0347H75.5347V55.0322V63.0322V66.5322H79.0347H87.0347H90.5347V63.0322V55.0322Z" fill="#DD1F2C" stroke="black" stroke-width="7"/>
<path d="M82.5308 55.0264V51.5264H79.0308H71.0308H67.5308V55.0264V63.0264V66.5264H71.0308H79.0308H82.5308V63.0264V55.0264Z" fill="#DD1F2C" stroke="black" stroke-width="7"/>
<path d="M74.5264 55.0303V51.5303H71.0264H63.0264H59.5264V55.0303V63.0303V66.5303H63.0264H71.0264H74.5264V63.0303V55.0303Z" fill="#DD1F2C" stroke="black" stroke-width="7"/>
<path d="M66.522 55.0347V51.5347H63.022H55.022H51.522V55.0347V63.0347V66.5347H55.022H63.022H66.522V63.0347V55.0347Z" fill="#DD1F2C" stroke="black" stroke-width="7"/>
<path d="M58.5181 55.0288V51.5288H55.0181H47.0181H43.5181V55.0288V63.0288V66.5288H47.0181H55.0181H58.5181V63.0288V55.0288Z" fill="#DD1F2C" stroke="black" stroke-width="7"/>
<path d="M178.585 63.0298V59.5298H175.085H167.085H163.585V63.0298V71.0298V74.5298H167.085H175.085H178.585V71.0298V63.0298Z" fill="#DD1F2C" stroke="black" stroke-width="7"/>
<path d="M162.577 63.0386V59.5386H159.077H151.077H147.577V63.0386V71.0386V74.5386H151.077H159.077H162.577V71.0386V63.0386Z" fill="#EE2847" stroke="black" stroke-width="7"/>
<path d="M154.572 63.0327V59.5327H151.072H143.072H139.572V63.0327V71.0327V74.5327H143.072H151.072H154.572V71.0327V63.0327Z" fill="#EE2847" stroke="black" stroke-width="7"/>
<path d="M146.568 63.0366V59.5366H143.068H135.068H131.568V63.0366V71.0366V74.5366H135.068H143.068H146.568V71.0366V63.0366Z" fill="#EE2847" stroke="black" stroke-width="7"/>
<path d="M138.564 63.0308V59.5308H135.064H127.064H123.564V63.0308V71.0308V74.5308H127.064H135.064H138.564V71.0308V63.0308Z" fill="#EE2847" stroke="black" stroke-width="7"/>
<path d="M130.56 63.0352V59.5352H127.06H119.06H115.56V63.0352V71.0352V74.5352H119.06H127.06H130.56V71.0352V63.0352Z" fill="#EE2847" stroke="black" stroke-width="7"/>
<path d="M122.556 63.0293V59.5293H119.056H111.056H107.556V63.0293V71.0293V74.5293H111.056H119.056H122.556V71.0293V63.0293Z" fill="#EE2847" stroke="black" stroke-width="7"/>
<path d="M114.552 63.0337V59.5337H111.052H103.052H99.5518V63.0337V71.0337V74.5337H103.052H111.052H114.552V71.0337V63.0337Z" fill="#DD1F2C" stroke="black" stroke-width="7"/>
<path d="M106.547 63.0376V59.5376H103.047H95.0474H91.5474V63.0376V71.0376V74.5376H95.0474H103.047H106.547V71.0376V63.0376Z" fill="#DD1F2C" stroke="black" stroke-width="7"/>
<path d="M98.543 63.0322V59.5322H95.043H87.043H83.543V63.0322V71.0322V74.5322H87.043H95.043H98.543V71.0322V63.0322Z" fill="#DD1F2C" stroke="black" stroke-width="7"/>
<path d="M90.5391 63.0361V59.5361H87.0391H79.0391H75.5391V63.0361V71.0361V74.5361H79.0391H87.0391H90.5391V71.0361V63.0361Z" fill="#DD1F2C" stroke="black" stroke-width="7"/>
<path d="M82.5347 63.0303V59.5303H79.0347H71.0347H67.5347V63.0303V71.0303V74.5303H71.0347H79.0347H82.5347V71.0303V63.0303Z" fill="#DD1F2C" stroke="black" stroke-width="7"/>
<path d="M74.5308 63.0347V59.5347H71.0308H63.0308H59.5308V63.0347V71.0347V74.5347H63.0308H71.0308H74.5308V71.0347V63.0347Z" fill="#DD1F2C" stroke="black" stroke-width="7"/>
<path d="M66.5264 63.0386V59.5386H63.0264H55.0264H51.5264V63.0386V71.0386V74.5386H55.0264H63.0264H66.5264V71.0386V63.0386Z" fill="#DD1F2C" stroke="black" stroke-width="7"/>
<path d="M58.522 63.0332V59.5332H55.022H47.022H43.522V63.0332V71.0332V74.5332H47.022H55.022H58.522V71.0332V63.0332Z" fill="#DD1F2C" stroke="black" stroke-width="7"/>
<path d="M178.589 71.0342V67.5342H175.089H167.089H163.589V71.0342V79.0342V82.5342H167.089H175.089H178.589V79.0342V71.0342Z" fill="#DD1F2C" stroke="black" stroke-width="7"/>
<path d="M170.585 71.0386V67.5386H167.085H159.085H155.585V71.0386V79.0386V82.5386H159.085H167.085H170.585V79.0386V71.0386Z" fill="#DD1F2C" stroke="black" stroke-width="7"/>
<path d="M162.581 71.0425V67.5425H159.081H151.081H147.581V71.0425V79.0425V82.5425H151.081H159.081H162.581V79.0425V71.0425Z" fill="#EE2847" stroke="black" stroke-width="7"/>
<path d="M154.577 71.0366V67.5366H151.077H143.077H139.577V71.0366V79.0366V82.5366H143.077H151.077H154.577V79.0366V71.0366Z" fill="#EE2847" stroke="black" stroke-width="7"/>
<path d="M146.572 71.041V67.541H143.072H135.072H131.572V71.041V79.041V82.541H135.072H143.072H146.572V79.041V71.041Z" fill="#EE2847" stroke="black" stroke-width="7"/>
<path d="M138.568 71.0352V67.5352H135.068H127.068H123.568V71.0352V79.0352V82.5352H127.068H135.068H138.568V79.0352V71.0352Z" fill="#EE2847" stroke="black" stroke-width="7"/>
<path d="M130.564 71.0396V67.5396H127.064H119.064H115.564V71.0396V79.0396V82.5396H119.064H127.064H130.564V79.0396V71.0396Z" fill="#EE2847" stroke="black" stroke-width="7"/>
<path d="M122.56 71.0337V67.5337H119.06H111.06H107.56V71.0337V79.0337V82.5337H111.06H119.06H122.56V79.0337V71.0337Z" fill="#DD1F2C" stroke="black" stroke-width="7"/>
<path d="M114.556 71.0376V67.5376H111.056H103.056H99.5557V71.0376V79.0376V82.5376H103.056H111.056H114.556V79.0376V71.0376Z" fill="#DD1F2C" stroke="black" stroke-width="7"/>
<path d="M106.552 71.042V67.542H103.052H95.0518H91.5518V71.042V79.042V82.542H95.0518H103.052H106.552V79.042V71.042Z" fill="#DD1F2C" stroke="black" stroke-width="7"/>
<path d="M98.5474 71.0361V67.5361H95.0474H87.0474H83.5474V71.0361V79.0361V82.5361H87.0474H95.0474H98.5474V79.0361V71.0361Z" fill="#DD1F2C" stroke="black" stroke-width="7"/>
<path d="M90.543 71.0405V67.5405H87.043H79.043H75.543V71.0405V79.0405V82.5405H79.043H87.043H90.543V79.0405V71.0405Z" fill="#DD1F2C" stroke="black" stroke-width="7"/>
<path d="M82.5391 71.0347V67.5347H79.0391H71.0391H67.5391V71.0347V79.0347V82.5347H71.0391H79.0391H82.5391V79.0347V71.0347Z" fill="#DD1F2C" stroke="black" stroke-width="7"/>
<path d="M74.5347 71.0386V67.5386H71.0347H63.0347H59.5347V71.0386V79.0386V82.5386H63.0347H71.0347H74.5347V79.0386V71.0386Z" fill="#DD1F2C" stroke="black" stroke-width="7"/>
<path d="M66.5308 71.043V67.543H63.0308H55.0308H51.5308V71.043V79.043V82.543H55.0308H63.0308H66.5308V79.043V71.043Z" fill="#DD1F2C" stroke="black" stroke-width="7"/>
<path d="M58.5264 71.0371V67.5371H55.0264H47.0264H43.5264V71.0371V79.0371V82.5371H47.0264H55.0264H58.5264V79.0371V71.0371Z" fill="#DD1F2C" stroke="black" stroke-width="7"/>
<path d="M178.583 79.0386V75.5386H175.083H167.083H163.583V79.0386V87.0386V90.5386H167.083H175.083H178.583V87.0386V79.0386Z" fill="#DD1F2C" stroke="black" stroke-width="7"/>
<path d="M170.579 79.0425V75.5425H167.079H159.079H155.579V79.0425V87.0425V90.5425H159.079H167.079H170.579V87.0425V79.0425Z" fill="#DD1F2C" stroke="black" stroke-width="7"/>
<path d="M162.575 79.0469V75.5469H159.075H151.075H147.575V79.0469V87.0469V90.5469H151.075H159.075H162.575V87.0469V79.0469Z" fill="#EE2847" stroke="black" stroke-width="7"/>
<path d="M154.571 79.041V75.541H151.071H143.071H139.571V79.041V87.041V90.541H143.071H151.071H154.571V87.041V79.041Z" fill="#EE2847" stroke="black" stroke-width="7"/>
<path d="M146.567 79.0454V75.5454H143.067H135.067H131.567V79.0454V87.0454V90.5454H135.067H143.067H146.567V87.0454V79.0454Z" fill="#EE2847" stroke="black" stroke-width="7"/>
<path d="M138.562 79.0396V75.5396H135.062H127.062H123.562V79.0396V87.0396V90.5396H127.062H135.062H138.562V87.0396V79.0396Z" fill="#EE2847" stroke="black" stroke-width="7"/>
<path d="M130.559 79.0435V75.5435H127.059H119.059H115.559V79.0435V87.0435V90.5435H119.059H127.059H130.559V87.0435V79.0435Z" fill="#EE2847" stroke="black" stroke-width="7"/>
<path d="M122.554 79.0376V75.5376H119.054H111.054H107.554V79.0376V87.0376V90.5376H111.054H119.054H122.554V87.0376V79.0376Z" fill="#DD1F2C" stroke="black" stroke-width="7"/>
<path d="M114.55 79.042V75.542H111.05H103.05H99.5498V79.042V87.042V90.542H103.05H111.05H114.55V87.042V79.042Z" fill="#DD1F2C" stroke="black" stroke-width="7"/>
<path d="M106.546 79.0464V75.5464H103.046H95.0459H91.5459V79.0464V87.0464V90.5464H95.0459H103.046H106.546V87.0464V79.0464Z" fill="#DD1F2C" stroke="black" stroke-width="7"/>
<path d="M98.5415 79.0405V75.5405H95.0415H87.0415H83.5415V79.0405V87.0405V90.5405H87.0415H95.0415H98.5415V87.0405V79.0405Z" fill="#DD1F2C" stroke="black" stroke-width="7"/>
<path d="M90.5376 79.0444V75.5444H87.0376H79.0376H75.5376V79.0444V87.0444V90.5444H79.0376H87.0376H90.5376V87.0444V79.0444Z" fill="#DD1F2C" stroke="black" stroke-width="7"/>
<path d="M82.5332 79.0386V75.5386H79.0332H71.0332H67.5332V79.0386V87.0386V90.5386H71.0332H79.0332H82.5332V87.0386V79.0386Z" fill="#DD1F2C" stroke="black" stroke-width="7"/>
<path d="M178.588 87.0425V83.5425H175.088H167.088H163.588V87.0425V95.0425V98.5425H167.088H175.088H178.588V95.0425V87.0425Z" fill="#DD1F2C" stroke="black" stroke-width="7"/>
<path d="M170.583 87.0469V83.5469H167.083H159.083H155.583V87.0469V95.0469V98.5469H159.083H167.083H170.583V95.0469V87.0469Z" fill="#DD1F2C" stroke="black" stroke-width="7"/>
<path d="M162.579 87.0508V83.5508H159.079H151.079H147.579V87.0508V95.0508V98.5508H151.079H159.079H162.579V95.0508V87.0508Z" fill="#DD1F2C" stroke="black" stroke-width="7"/>
<path d="M154.575 87.0454V83.5454H151.075H143.075H139.575V87.0454V95.0454V98.5454H143.075H151.075H154.575V95.0454V87.0454Z" fill="#DD1F2C" stroke="black" stroke-width="7"/>
<path d="M146.571 87.0493V83.5493H143.071H135.071H131.571V87.0493V95.0493V98.5493H135.071H143.071H146.571V95.0493V87.0493Z" fill="#EE2847" stroke="black" stroke-width="7"/>
<path d="M138.567 87.0435V83.5435H135.067H127.067H123.567V87.0435V95.0435V98.5435H127.067H135.067H138.567V95.0435V87.0435Z" fill="#EE2847" stroke="black" stroke-width="7"/>
<path d="M130.562 87.0479V83.5479H127.062H119.062H115.562V87.0479V95.0479V98.5479H119.062H127.062H130.562V95.0479V87.0479Z" fill="#EE2847" stroke="black" stroke-width="7"/>
<path d="M122.559 87.042V83.542H119.059H111.059H107.559V87.042V95.042V98.542H111.059H119.059H122.559V95.042V87.042Z" fill="#DD1F2C" stroke="black" stroke-width="7"/>
<path d="M114.554 87.0464V83.5464H111.054H103.054H99.5542V87.0464V95.0464V98.5464H103.054H111.054H114.554V95.0464V87.0464Z" fill="#DD1F2C" stroke="black" stroke-width="7"/>
<path d="M106.55 87.0503V83.5503H103.05H95.0498H91.5498V87.0503V95.0503V98.5503H95.0498H103.05H106.55V95.0503V87.0503Z" fill="#DD1F2C" stroke="black" stroke-width="7"/>
<path d="M98.5459 87.0444V83.5444H95.0459H87.0459H83.5459V87.0444V95.0444V98.5444H87.0459H95.0459H98.5459V95.0444V87.0444Z" fill="#DD1F2C" stroke="black" stroke-width="7"/>
<path d="M90.5415 87.0488V83.5488H87.0415H79.0415H75.5415V87.0488V95.0488V98.5488H79.0415H87.0415H90.5415V95.0488V87.0488Z" fill="#DD1F2C" stroke="black" stroke-width="7"/>
<path d="M178.582 95.0469V91.5469H175.082H167.082H163.582V95.0469V103.047V106.547H167.082H175.082H178.582V103.047V95.0469Z" fill="#DD1F2C" stroke="black" stroke-width="7"/>
<path d="M170.578 95.0508V91.5508H167.078H159.078H155.578V95.0508V103.051V106.551H159.078H167.078H170.578V103.051V95.0508Z" fill="#DD1F2C" stroke="black" stroke-width="7"/>
<path d="M162.573 95.0552V91.5552H159.073H151.073H147.573V95.0552V103.055V106.555H151.073H159.073H162.573V103.055V95.0552Z" fill="#DD1F2C" stroke="black" stroke-width="7"/>
<path d="M154.569 95.0493V91.5493H151.069H143.069H139.569V95.0493V103.049V106.549H143.069H151.069H154.569V103.049V95.0493Z" fill="#DD1F2C" stroke="black" stroke-width="7"/>
<path d="M146.565 95.0537V91.5537H143.065H135.065H131.565V95.0537V103.054V106.554H135.065H143.065H146.565V103.054V95.0537Z" fill="#DD1F2C" stroke="black" stroke-width="7"/>
<path d="M138.561 95.0479V91.5479H135.061H127.061H123.561V95.0479V103.048V106.548H127.061H135.061H138.561V103.048V95.0479Z" fill="#EE2847" stroke="black" stroke-width="7"/>
<path d="M130.557 95.0518V91.5518H127.057H119.057H115.557V95.0518V103.052V106.552H119.057H127.057H130.557V103.052V95.0518Z" fill="#EE2847" stroke="black" stroke-width="7"/>
<path d="M122.553 95.0464V91.5464H119.053H111.053H107.553V95.0464V103.046V106.546H111.053H119.053H122.553V103.046V95.0464Z" fill="#EE2847" stroke="black" stroke-width="7"/>
<path d="M114.548 95.0503V91.5503H111.048H103.048H99.5483V95.0503V103.05V106.55H103.048H111.048H114.548V103.05V95.0503Z" fill="#DD1F2C" stroke="black" stroke-width="7"/>
<path d="M106.544 95.0547V91.5547H103.044H95.0444H91.5444V95.0547V103.055V106.555H95.0444H103.044H106.544V103.055V95.0547Z" fill="#DD1F2C" stroke="black" stroke-width="7"/>
<path d="M178.586 103.051V99.5508H175.086H167.086H163.586V103.051V111.051V114.551H167.086H175.086H178.586V111.051V103.051Z" fill="#DD1F2C" stroke="black" stroke-width="7"/>
<path d="M170.582 103.055V99.5552H167.082H159.082H155.582V103.055V111.055V114.555H159.082H167.082H170.582V111.055V103.055Z" fill="#DD1F2C" stroke="black" stroke-width="7"/>
<path d="M162.578 103.06V99.5596H159.078H151.078H147.578V103.06V111.06V114.56H151.078H159.078H162.578V111.06V103.06Z" fill="#DD1F2C" stroke="black" stroke-width="7"/>
<path d="M154.573 103.054V99.5537H151.073H143.073H139.573V103.054V111.054V114.554H143.073H151.073H154.573V111.054V103.054Z" fill="#DD1F2C" stroke="black" stroke-width="7"/>
<path d="M146.569 103.058V99.5576H143.069H135.069H131.569V103.058V111.058V114.558H135.069H143.069H146.569V111.058V103.058Z" fill="#DD1F2C" stroke="black" stroke-width="7"/>
<path d="M138.565 103.052V99.5518H135.065H127.065H123.565V103.052V111.052V114.552H127.065H135.065H138.565V111.052V103.052Z" fill="#311112" stroke="black" stroke-width="7"/>
<path d="M130.561 103.056V99.5562H127.061H119.061H115.561V103.056V111.056V114.556H119.061H127.061H130.561V111.056V103.056Z" fill="#311112" stroke="black" stroke-width="7"/>
<path d="M122.557 103.05V99.5503H119.057H111.057H107.557V103.05V111.05V114.55H111.057H119.057H122.557V111.05V103.05Z" fill="#EE2847" stroke="black" stroke-width="7"/>
<path d="M114.553 103.055V99.5547H111.053H103.053H99.5527V103.055V111.055V114.555H103.053H111.053H114.553V111.055V103.055Z" fill="#EE2847" stroke="black" stroke-width="7"/>
<path d="M106.548 103.059V99.5586H103.048H95.0483H91.5483V103.059V111.059V114.559H95.0483H103.048H106.548V111.059V103.059Z" fill="#EE2847" stroke="black" stroke-width="7"/>
<path d="M178.59 111.055V107.555H175.09H167.09H163.59V111.055V119.055V122.555H167.09H175.09H178.59V119.055V111.055Z" fill="#EA6387" stroke="black" stroke-width="7"/>
<path d="M170.586 111.06V107.56H167.086H159.086H155.586V111.06V119.06V122.56H159.086H167.086H170.586V119.06V111.06Z" fill="#EA6387" stroke="black" stroke-width="7"/>
<path d="M162.582 111.063V107.563H159.082H151.082H147.582V111.063V119.063V122.563H151.082H159.082H162.582V119.063V111.063Z" fill="#EA6387" stroke="black" stroke-width="7"/>
<path d="M154.578 111.058V107.558H151.078H143.078H139.578V111.058V119.058V122.558H143.078H151.078H154.578V119.058V111.058Z" fill="#EA6387" stroke="black" stroke-width="7"/>
<path d="M146.573 111.062V107.562H143.073H135.073H131.573V111.062V119.062V122.562H135.073H143.073H146.573V119.062V111.062Z" fill="#DD1F2C" stroke="black" stroke-width="7"/>
<path d="M138.569 111.056V107.556H135.069H127.069H123.569V111.056V119.056V122.556H127.069H135.069H138.569V119.056V111.056Z" fill="#311112" stroke="black" stroke-width="7"/>
<path d="M130.565 111.061V107.561H127.065H119.065H115.565V111.061V119.061V122.561H119.065H127.065H130.565V119.061V111.061Z" fill="#311112" stroke="black" stroke-width="7"/>
<path d="M122.561 111.055V107.555H119.061H111.061H107.561V111.055V119.055V122.555H111.061H119.061H122.561V119.055V111.055Z" fill="#311112" stroke="black" stroke-width="7"/>
<path d="M114.557 111.059V107.559H111.057H103.057H99.5566V111.059V119.059V122.559H103.057H111.057H114.557V119.059V111.059Z" fill="#EE2847" stroke="black" stroke-width="7"/>
<path d="M106.553 111.063V107.563H103.053H95.0527H91.5527V111.063V119.063V122.563H95.0527H103.053H106.553V119.063V111.063Z" fill="#EE2847" stroke="black" stroke-width="7"/>
<path d="M98.5483 111.057V107.557H95.0483H87.0483H83.5483V111.057V119.057V122.557H87.0483H95.0483H98.5483V119.057V111.057Z" fill="#EE2847" stroke="black" stroke-width="7"/>
<path d="M90.5444 111.062V107.562H87.0444H79.0444H75.5444V111.062V119.062V122.562H79.0444H87.0444H90.5444V119.062V111.062Z" fill="#095A2E" stroke="black" stroke-width="7"/>
<path d="M82.54 111.056V107.556H79.04H71.04H67.54V111.056V119.056V122.556H71.04H79.04H82.54V119.056V111.056Z" fill="#095A2E" stroke="black" stroke-width="7"/>
<path d="M178.584 119.06V115.56H175.084H167.084H163.584V119.06V127.06V130.56H167.084H175.084H178.584V127.06V119.06Z" fill="#EE2847" stroke="black" stroke-width="7"/>
<path d="M170.667 119.067V115.567H167.167H159.167H155.667V119.067V127.067V130.567H159.167H167.167H170.667V127.067V119.067Z" fill="#DD1F2C" stroke="black" stroke-width="7"/>
<path d="M162.663 119.061V115.561H159.163H151.163H147.663V119.061V127.061V130.561H151.163H159.163H162.663V127.061V119.061Z" fill="#DD1F2C" stroke="black" stroke-width="7"/>
<path d="M154.572 119.062V115.562H151.072H143.072H139.572V119.062V127.062V130.562H143.072H151.072H154.572V127.062V119.062Z" fill="#EA6387" stroke="black" stroke-width="7"/>
<path d="M146.568 119.066V115.566H143.068H135.068H131.568V119.066V127.066V130.566H135.068H143.068H146.568V127.066V119.066Z" fill="#EA6387" stroke="black" stroke-width="7"/>
<path d="M138.563 119.061V115.561H135.063H127.063H123.563V119.061V127.061V130.561H127.063H135.063H138.563V127.061V119.061Z" fill="#EA6387" stroke="black" stroke-width="7"/>
<path d="M130.559 119.064V115.564H127.059H119.059H115.559V119.064V127.064V130.564H119.059H127.059H130.559V127.064V119.064Z" fill="#EA6387" stroke="black" stroke-width="7"/>
<path d="M122.555 119.059V115.559H119.055H111.055H107.555V119.059V127.059V130.559H111.055H119.055H122.555V127.059V119.059Z" fill="#311112" stroke="black" stroke-width="7"/>
<path d="M114.551 119.063V115.563H111.051H103.051H99.5508V119.063V127.063V130.563H103.051H111.051H114.551V127.063V119.063Z" fill="#EE2847" stroke="black" stroke-width="7"/>
<path d="M106.547 119.067V115.567H103.047H95.0469H91.5469V119.067V127.067V130.567H95.0469H103.047H106.547V127.067V119.067Z" fill="#EE2847" stroke="black" stroke-width="7"/>
<path d="M98.5425 119.062V115.562H95.0425H87.0425H83.5425V119.062V127.062V130.562H87.0425H95.0425H98.5425V127.062V119.062Z" fill="#EE2847" stroke="black" stroke-width="7"/>
<path d="M90.5386 119.065V115.565H87.0386H79.0386H75.5386V119.065V127.065V130.565H79.0386H87.0386H90.5386V127.065V119.065Z" fill="#EE2847" stroke="black" stroke-width="7"/>
<path d="M82.5342 119.06V115.56H79.0342H71.0342H67.5342V119.06V127.06V130.56H71.0342H79.0342H82.5342V127.06V119.06Z" fill="#095A2E" stroke="black" stroke-width="7"/>
<path d="M74.5298 119.064V115.564H71.0298H63.0298H59.5298V119.064V127.064V130.564H63.0298H71.0298H74.5298V127.064V119.064Z" fill="#095A2E" stroke="black" stroke-width="7"/>
<path d="M178.498 127.005V123.505H174.998H166.998H163.498V127.005V135.005V138.505H166.998H174.998H178.498V135.005V127.005Z" fill="#DD1F2C" stroke="black" stroke-width="7"/>
<path d="M170.671 127.071V123.571H167.171H159.171H155.671V127.071V135.071V138.571H159.171H167.171H170.671V135.071V127.071Z" fill="#DD1F2C" stroke="black" stroke-width="7"/>
<path d="M162.667 127.065V123.565H159.167H151.167H147.667V127.065V135.065V138.565H151.167H159.167H162.667V135.065V127.065Z" fill="#DD1F2C" stroke="black" stroke-width="7"/>
<path d="M154.576 127.066V123.566H151.076H143.076H139.576V127.066V135.066V138.566H143.076H151.076H154.576V135.066V127.066Z" fill="#EE2847" stroke="black" stroke-width="7"/>
<path d="M146.572 127.07V123.57H143.072H135.072H131.572V127.07V135.07V138.57H135.072H143.072H146.572V135.07V127.07Z" fill="#311112" stroke="black" stroke-width="7"/>
<path d="M138.568 127.064V123.564H135.068H127.068H123.568V127.064V135.064V138.564H127.068H135.068H138.568V135.064V127.064Z" fill="#311112" stroke="black" stroke-width="7"/>
<path d="M130.563 127.069V123.569H127.063H119.063H115.563V127.069V135.069V138.569H119.063H127.063H130.563V135.069V127.069Z" fill="#311112" stroke="black" stroke-width="7"/>
<path d="M122.559 127.063V123.563H119.059H111.059H107.559V127.063V135.063V138.563H111.059H119.059H122.559V135.063V127.063Z" fill="#EE2847" stroke="black" stroke-width="7"/>
<path d="M114.555 127.067V123.567H111.055H103.055H99.5552V127.067V135.067V138.567H103.055H111.055H114.555V135.067V127.067Z" fill="#EE2847" stroke="black" stroke-width="7"/>
<path d="M106.551 127.071V123.571H103.051H95.0508H91.5508V127.071V135.071V138.571H95.0508H103.051H106.551V135.071V127.071Z" fill="#EE2847" stroke="black" stroke-width="7"/>
<path d="M98.5469 127.065V123.565H95.0469H87.0469H83.5469V127.065V135.065V138.565H87.0469H95.0469H98.5469V135.065V127.065Z" fill="#EE2847" stroke="black" stroke-width="7"/>
<path d="M90.5425 127.07V123.57H87.0425H79.0425H75.5425V127.07V135.07V138.57H79.0425H87.0425H90.5425V135.07V127.07Z" fill="#EE2847" stroke="black" stroke-width="7"/>
<path d="M74.5342 127.068V123.568H71.0342H63.0342H59.5342V127.068V135.068V138.568H63.0342H71.0342H74.5342V135.068V127.068Z" fill="#095A2E" stroke="black" stroke-width="7"/>
<path d="M66.5298 127.072V123.572H63.0298H55.0298H51.5298V127.072V135.072V138.572H55.0298H63.0298H66.5298V135.072V127.072Z" fill="#095A2E" stroke="black" stroke-width="7"/>
<path d="M178.669 135.005V131.505H175.169H167.169H163.669V135.005V143.005V146.505H167.169H175.169H178.669V143.005V135.005Z" fill="#DD1F2C" stroke="black" stroke-width="7"/>
<path d="M170.579 135.072V131.572H167.079H159.079H155.579V135.072V143.072V146.572H159.079H167.079H170.579V143.072V135.072Z" fill="#DD1F2C" stroke="black" stroke-width="7"/>
<path d="M162.575 135.076V131.576H159.075H151.075H147.575V135.076V143.076V146.576H151.075H159.075H162.575V143.076V135.076Z" fill="#EE2847" stroke="black" stroke-width="7"/>
<path d="M154.57 135.07V131.57H151.07H143.07H139.57V135.07V143.07V146.57H143.07H151.07H154.57V143.07V135.07Z" fill="#EE2847" stroke="black" stroke-width="7"/>
<path d="M146.566 135.075V131.575H143.066H135.066H131.566V135.075V143.075V146.575H135.066H143.066H146.566V143.075V135.075Z" fill="#EE2847" stroke="black" stroke-width="7"/>
<path d="M138.562 135.069V131.569H135.062H127.062H123.562V135.069V143.069V146.569H127.062H135.062H138.562V143.069V135.069Z" fill="#EE2847" stroke="black" stroke-width="7"/>
<path d="M130.558 135.073V131.573H127.058H119.058H115.558V135.073V143.073V146.573H119.058H127.058H130.558V143.073V135.073Z" fill="#EE2847" stroke="black" stroke-width="7"/>
<path d="M122.554 135.067V131.567H119.054H111.054H107.554V135.067V143.067V146.567H111.054H119.054H122.554V143.067V135.067Z" fill="#EE2847" stroke="black" stroke-width="7"/>
<path d="M114.549 135.071V131.571H111.049H103.049H99.5493V135.071V143.071V146.571H103.049H111.049H114.549V143.071V135.071Z" fill="#EE2847" stroke="black" stroke-width="7"/>
<path d="M106.545 135.076V131.576H103.045H95.0449H91.5449V135.076V143.076V146.576H95.0449H103.045H106.545V143.076V135.076Z" fill="#EE2847" stroke="black" stroke-width="7"/>
<path d="M98.541 135.07V131.57H95.041H87.041H83.541V135.07V143.07V146.57H87.041H95.041H98.541V143.07V135.07Z" fill="#EE2847" stroke="black" stroke-width="7"/>
<path d="M90.5366 135.074V131.574H87.0366H79.0366H75.5366V135.074V143.074V146.574H79.0366H87.0366H90.5366V143.074V135.074Z" fill="#EE2847" stroke="black" stroke-width="7"/>
<path d="M66.5244 135.077V131.577H63.0244H55.0244H51.5244V135.077V143.077V146.577H55.0244H63.0244H66.5244V143.077V135.077Z" fill="#095A2E" stroke="black" stroke-width="7"/>
<path d="M58.52 135.071V131.571H55.02H47.02H43.52V135.071V143.071V146.571H47.02H55.02H58.52V143.071V135.071Z" fill="#095A2E" stroke="black" stroke-width="7"/>
<path d="M178.587 143.072V139.572H175.087H167.087H163.587V143.072V151.072V154.572H167.087H175.087H178.587V151.072V143.072Z" fill="#DD1F2C" stroke="black" stroke-width="7"/>
<path d="M170.583 143.076V139.576H167.083H159.083H155.583V143.076V151.076V154.576H159.083H167.083H170.583V151.076V143.076Z" fill="#DD1F2C" stroke="black" stroke-width="7"/>
<path d="M162.579 143.081V139.581H159.079H151.079H147.579V143.081V151.081V154.581H151.079H159.079H162.579V151.081V143.081Z" fill="#EE2847" stroke="black" stroke-width="7"/>
<path d="M154.575 143.075V139.575H151.075H143.075H139.575V143.075V151.075V154.575H143.075H151.075H154.575V151.075V143.075Z" fill="#EE2847" stroke="black" stroke-width="7"/>
<path d="M146.57 143.079V139.579H143.07H135.07H131.57V143.079V151.079V154.579H135.07H143.07H146.57V151.079V143.079Z" fill="#EE2847" stroke="black" stroke-width="7"/>
<path d="M138.566 143.073V139.573H135.066H127.066H123.566V143.073V151.073V154.573H127.066H135.066H138.566V151.073V143.073Z" fill="#EE2847" stroke="black" stroke-width="7"/>
<path d="M130.562 143.077V139.577H127.062H119.062H115.562V143.077V151.077V154.577H119.062H127.062H130.562V151.077V143.077Z" fill="#EE2847" stroke="black" stroke-width="7"/>
<path d="M122.558 143.071V139.571H119.058H111.058H107.558V143.071V151.071V154.571H111.058H119.058H122.558V151.071V143.071Z" fill="#EE2847" stroke="black" stroke-width="7"/>
<path d="M114.554 143.076V139.576H111.054H103.054H99.5537V143.076V151.076V154.576H103.054H111.054H114.554V151.076V143.076Z" fill="#EE2847" stroke="black" stroke-width="7"/>
<path d="M106.549 143.08V139.58H103.049H95.0493H91.5493V143.08V151.08V154.58H95.0493H103.049H106.549V151.08V143.08Z" fill="#EE2847" stroke="black" stroke-width="7"/>
<path d="M98.5449 143.074V139.574H95.0449H87.0449H83.5449V143.074V151.074V154.574H87.0449H95.0449H98.5449V151.074V143.074Z" fill="#EE2847" stroke="black" stroke-width="7"/>
<path d="M90.541 143.078V139.578H87.041H79.041H75.541V143.078V151.078V154.578H79.041H87.041H90.541V151.078V143.078Z" fill="#EE2847" stroke="black" stroke-width="7"/>
<path d="M82.5366 143.072V139.572H79.0366H71.0366H67.5366V143.072V151.072V154.572H71.0366H79.0366H82.5366V151.072V143.072Z" fill="#EE2847" stroke="black" stroke-width="7"/>
<path d="M58.5244 143.075V139.575H55.0244H47.0244H43.5244V143.075V151.075V154.575H47.0244H55.0244H58.5244V151.075V143.075Z" fill="#095A2E" stroke="black" stroke-width="7"/>
<path d="M50.52 143.079V139.579H47.02H39.02H35.52V143.079V151.079V154.579H39.02H47.02H50.52V151.079V143.079Z" fill="#095A2E" stroke="black" stroke-width="7"/>
<path d="M178.581 151.076V147.576H175.081H167.081H163.581V151.076V159.076V162.576H167.081H175.081H178.581V159.076V151.076Z" fill="#DD1F2C" stroke="black" stroke-width="7"/>
<path d="M170.577 151.081V147.581H167.077H159.077H155.577V151.081V159.081V162.581H159.077H167.077H170.577V159.081V151.081Z" fill="#DD1F2C" stroke="black" stroke-width="7"/>
<path d="M162.573 151.084V147.584H159.073H151.073H147.573V151.084V159.084V162.584H151.073H159.073H162.573V159.084V151.084Z" fill="#EE2847" stroke="black" stroke-width="7"/>
<path d="M154.569 151.079V147.579H151.069H143.069H139.569V151.079V159.079V162.579H143.069H151.069H154.569V159.079V151.079Z" fill="#EE2847" stroke="black" stroke-width="7"/>
<path d="M146.564 151.083V147.583H143.064H135.064H131.564V151.083V159.083V162.583H135.064H143.064H146.564V159.083V151.083Z" fill="#EE2847" stroke="black" stroke-width="7"/>
<path d="M138.561 151.077V147.577H135.061H127.061H123.561V151.077V159.077V162.577H127.061H135.061H138.561V159.077V151.077Z" fill="#EE2847" stroke="black" stroke-width="7"/>
<path d="M130.556 151.082V147.582H127.056H119.056H115.556V151.082V159.082V162.582H119.056H127.056H130.556V159.082V151.082Z" fill="#EE2847" stroke="black" stroke-width="7"/>
<path d="M122.552 151.076V147.576H119.052H111.052H107.552V151.076V159.076V162.576H111.052H119.052H122.552V159.076V151.076Z" fill="#EE2847" stroke="black" stroke-width="7"/>
<path d="M114.548 151.08V147.58H111.048H103.048H99.5479V151.08V159.08V162.58H103.048H111.048H114.548V159.08V151.08Z" fill="#EE2847" stroke="black" stroke-width="7"/>
<path d="M106.543 151.084V147.584H103.043H95.0435H91.5435V151.084V159.084V162.584H95.0435H103.043H106.543V159.084V151.084Z" fill="#EE2847" stroke="black" stroke-width="7"/>
<path d="M98.5391 151.078V147.578H95.0391H87.0391H83.5391V151.078V159.078V162.578H87.0391H95.0391H98.5391V159.078V151.078Z" fill="#EE2847" stroke="black" stroke-width="7"/>
<path d="M90.5352 151.083V147.583H87.0352H79.0352H75.5352V151.083V159.083V162.583H79.0352H87.0352H90.5352V159.083V151.083Z" fill="#EE2847" stroke="black" stroke-width="7"/>
<path d="M82.5308 151.077V147.577H79.0308H71.0308H67.5308V151.077V159.077V162.577H71.0308H79.0308H82.5308V159.077V151.077Z" fill="#EE2847" stroke="black" stroke-width="7"/>
<path d="M74.5269 151.081V147.581H71.0269H63.0269H59.5269V151.081V159.081V162.581H63.0269H71.0269H74.5269V159.081V151.081Z" fill="#EE2847" stroke="black" stroke-width="7"/>
<path d="M50.5142 151.083V147.583H47.0142H39.0142H35.5142V151.083V159.083V162.583H39.0142H47.0142H50.5142V159.083V151.083Z" fill="#095A2E" stroke="black" stroke-width="7"/>
<path d="M178.585 159.081V155.581H175.085H167.085H163.585V159.081V167.081V170.581H167.085H175.085H178.585V167.081V159.081Z" fill="#DD1F2C" stroke="black" stroke-width="7"/>
<path d="M170.581 159.084V155.584H167.081H159.081H155.581V159.084V167.084V170.584H159.081H167.081H170.581V167.084V159.084Z" fill="#DD1F2C" stroke="black" stroke-width="7"/>
<path d="M162.577 159.089V155.589H159.077H151.077H147.577V159.089V167.089V170.589H151.077H159.077H162.577V167.089V159.089Z" fill="#EE2847" stroke="black" stroke-width="7"/>
<path d="M154.573 159.083V155.583H151.073H143.073H139.573V159.083V167.083V170.583H143.073H151.073H154.573V167.083V159.083Z" fill="#EE2847" stroke="black" stroke-width="7"/>
<path d="M146.569 159.087V155.587H143.069H135.069H131.569V159.087V167.087V170.587H135.069H143.069H146.569V167.087V159.087Z" fill="#EE2847" stroke="black" stroke-width="7"/>
<path d="M138.564 159.082V155.582H135.064H127.064H123.564V159.082V167.082V170.582H127.064H135.064H138.564V167.082V159.082Z" fill="#EE2847" stroke="black" stroke-width="7"/>
<path d="M130.56 159.085V155.585H127.06H119.06H115.56V159.085V167.085V170.585H119.06H127.06H130.56V167.085V159.085Z" fill="#EE2847" stroke="black" stroke-width="7"/>
<path d="M122.556 159.08V155.58H119.056H111.056H107.556V159.08V167.08V170.58H111.056H119.056H122.556V167.08V159.08Z" fill="#EE2847" stroke="black" stroke-width="7"/>
<path d="M114.552 159.084V155.584H111.052H103.052H99.5518V159.084V167.084V170.584H103.052H111.052H114.552V167.084V159.084Z" fill="#EE2847" stroke="black" stroke-width="7"/>
<path d="M106.548 159.088V155.588H103.048H95.0479H91.5479V159.088V167.088V170.588H95.0479H103.048H106.548V167.088V159.088Z" fill="#EE2847" stroke="black" stroke-width="7"/>
<path d="M98.5435 159.083V155.583H95.0435H87.0435H83.5435V159.083V167.083V170.583H87.0435H95.0435H98.5435V167.083V159.083Z" fill="#EE2847" stroke="black" stroke-width="7"/>
<path d="M90.5391 159.086V155.586H87.0391H79.0391H75.5391V159.086V167.086V170.586H79.0391H87.0391H90.5391V167.086V159.086Z" fill="#EE2847" stroke="black" stroke-width="7"/>
<path d="M82.5352 159.081V155.581H79.0352H71.0352H67.5352V159.081V167.081V170.581H71.0352H79.0352H82.5352V167.081V159.081Z" fill="#EE2847" stroke="black" stroke-width="7"/>
<path d="M74.5308 159.085V155.585H71.0308H63.0308H59.5308V159.085V167.085V170.585H63.0308H71.0308H74.5308V167.085V159.085Z" fill="#EE2847" stroke="black" stroke-width="7"/>
<path d="M178.59 167.084V163.584H175.09H167.09H163.59V167.084V175.084V178.584H167.09H175.09H178.59V175.084V167.084Z" fill="#DD1F2C" stroke="black" stroke-width="7"/>
<path d="M170.585 167.089V163.589H167.085H159.085H155.585V167.089V175.089V178.589H159.085H167.085H170.585V175.089V167.089Z" fill="#DD1F2C" stroke="black" stroke-width="7"/>
<path d="M162.581 167.093V163.593H159.081H151.081H147.581V167.093V175.093V178.593H151.081H159.081H162.581V175.093V167.093Z" fill="#EE2847" stroke="black" stroke-width="7"/>
<path d="M154.577 167.087V163.587H151.077H143.077H139.577V167.087V175.087V178.587H143.077H151.077H154.577V175.087V167.087Z" fill="#EE2847" stroke="black" stroke-width="7"/>
<path d="M146.573 167.091V163.591H143.073H135.073H131.573V167.091V175.091V178.591H135.073H143.073H146.573V175.091V167.091Z" fill="#EE2847" stroke="black" stroke-width="7"/>
<path d="M138.569 167.085V163.585H135.069H127.069H123.569V167.085V175.085V178.585H127.069H135.069H138.569V175.085V167.085Z" fill="#EE2847" stroke="black" stroke-width="7"/>
<path d="M130.564 167.09V163.59H127.064H119.064H115.564V167.09V175.09V178.59H119.064H127.064H130.564V175.09V167.09Z" fill="#EE2847" stroke="black" stroke-width="7"/>
<path d="M122.56 167.084V163.584H119.06H111.06H107.56V167.084V175.084V178.584H111.06H119.06H122.56V175.084V167.084Z" fill="#EE2847" stroke="black" stroke-width="7"/>
<path d="M114.556 167.088V163.588H111.056H103.056H99.5562V167.088V175.088V178.588H103.056H111.056H114.556V175.088V167.088Z" fill="#EE2847" stroke="black" stroke-width="7"/>
<path d="M106.552 167.092V163.592H103.052H95.0518H91.5518V167.092V175.092V178.592H95.0518H103.052H106.552V175.092V167.092Z" fill="#EE2847" stroke="black" stroke-width="7"/>
<path d="M98.5479 167.086V163.586H95.0479H87.0479H83.5479V167.086V175.086V178.586H87.0479H95.0479H98.5479V175.086V167.086Z" fill="#EE2847" stroke="black" stroke-width="7"/>
<path d="M90.5435 167.091V163.591H87.0435H79.0435H75.5435V167.091V175.091V178.591H79.0435H87.0435H90.5435V175.091V167.091Z" fill="#EE2847" stroke="black" stroke-width="7"/>
<path d="M82.5391 167.085V163.585H79.0391H71.0391H67.5391V167.085V175.085V178.585H71.0391H79.0391H82.5391V175.085V167.085Z" fill="#EE2847" stroke="black" stroke-width="7"/>
<path d="M178.584 175.089V171.589H175.084H167.084H163.584V175.089V183.089V186.589H167.084H175.084H178.584V183.089V175.089Z" fill="#DD1F2C" stroke="black" stroke-width="7"/>
<path d="M170.58 175.093V171.593H167.08H159.08H155.58V175.093V183.093V186.593H159.08H167.08H170.58V183.093V175.093Z" fill="#DD1F2C" stroke="black" stroke-width="7"/>
<path d="M162.576 175.097V171.597H159.076H151.076H147.576V175.097V183.097V186.597H151.076H159.076H162.576V183.097V175.097Z" fill="#DD1F2C" stroke="black" stroke-width="7"/>
<path d="M154.571 175.091V171.591H151.071H143.071H139.571V175.091V183.091V186.591H143.071H151.071H154.571V183.091V175.091Z" fill="#EE2847" stroke="black" stroke-width="7"/>
<path d="M146.567 175.096V171.596H143.067H135.067H131.567V175.096V183.096V186.596H135.067H143.067H146.567V183.096V175.096Z" fill="#EE2847" stroke="black" stroke-width="7"/>
<path d="M138.563 175.09V171.59H135.063H127.063H123.563V175.09V183.09V186.59H127.063H135.063H138.563V183.09V175.09Z" fill="#EE2847" stroke="black" stroke-width="7"/>
<path d="M130.559 175.094V171.594H127.059H119.059H115.559V175.094V183.094V186.594H119.059H127.059H130.559V183.094V175.094Z" fill="#EE2847" stroke="black" stroke-width="7"/>
<path d="M122.555 175.088V171.588H119.055H111.055H107.555V175.088V183.088V186.588H111.055H119.055H122.555V183.088V175.088Z" fill="#EE2847" stroke="black" stroke-width="7"/>
<path d="M114.55 175.092V171.592H111.05H103.05H99.5503V175.092V183.092V186.592H103.05H111.05H114.55V183.092V175.092Z" fill="#EE2847" stroke="black" stroke-width="7"/>
<path d="M106.546 175.097V171.597H103.046H95.0459H91.5459V175.097V183.097V186.597H95.0459H103.046H106.546V183.097V175.097Z" fill="#EE2847" stroke="black" stroke-width="7"/>
<path d="M98.542 175.091V171.591H95.042H87.042H83.542V175.091V183.091V186.591H87.042H95.042H98.542V183.091V175.091Z" fill="#EE2847" stroke="black" stroke-width="7"/>
<path d="M178.588 183.093V179.593H175.088H167.088H163.588V183.093V191.093V194.593H167.088H175.088H178.588V191.093V183.093Z" fill="#DD1F2C" stroke="black" stroke-width="7"/>
<path d="M170.584 183.097V179.597H167.084H159.084H155.584V183.097V191.097V194.597H159.084H167.084H170.584V191.097V183.097Z" fill="#DD1F2C" stroke="black" stroke-width="7"/>
<path d="M138.567 183.094V179.594H135.067H127.067H123.567V183.094V191.094V194.594H127.067H135.067H138.567V191.094V183.094Z" fill="#EE2847" stroke="black" stroke-width="7"/>
<path d="M130.563 183.098V179.598H127.063H119.063H115.563V183.098V191.098V194.598H119.063H127.063H130.563V191.098V183.098Z" fill="#EE2847" stroke="black" stroke-width="7"/>
<path d="M122.559 183.092V179.592H119.059H111.059H107.559V183.092V191.092V194.592H111.059H119.059H122.559V191.092V183.092Z" fill="#EE2847" stroke="black" stroke-width="7"/>
<path d="M178.582 191.097V187.597H175.082H167.082H163.582V191.097V199.097V202.597H167.082H175.082H178.582V199.097V191.097Z" fill="#DD1F2C" stroke="black" stroke-width="7"/>
<path d="M178.586 199.102V195.602H175.086H167.086H163.586V199.102V207.102V210.602H167.086H175.086H178.586V207.102V199.102Z" fill="#DD1F2C" stroke="black" stroke-width="7"/>
<path d="M178.591 207.105V203.605H175.091H167.091H163.591V207.105V215.105V218.605H167.091H175.091H178.591V215.105V207.105Z" fill="#DD1F2C" stroke="black" stroke-width="7"/>
<path d="M42.5098 151.078V147.578H39.0098H31.0098H27.5098V151.078V159.078V162.578H31.0098H39.0098H42.5098V159.078V151.078Z" fill="#095A2E" stroke="black" stroke-width="7"/>
<path d="M42.5142 159.082V155.582H39.0142H31.0142H27.5142V159.082V167.082V170.582H31.0142H39.0142H42.5142V167.082V159.082Z" fill="#095A2E" stroke="black" stroke-width="7"/>
<path d="M34.5098 159.086V155.586H31.0098H23.0098H19.5098V159.086V167.086V170.586H23.0098H31.0098H34.5098V167.086V159.086Z" fill="#095A2E" stroke="black" stroke-width="7"/>
<path d="M34.5142 167.09V163.59H31.0142H23.0142H19.5142V167.09V175.09V178.59H23.0142H31.0142H34.5142V175.09V167.09Z" fill="#095A2E" stroke="black" stroke-width="7"/>
<path d="M26.5098 167.084V163.584H23.0098H15.0098H11.5098V167.084L11.5098 175.084V178.584H15.0098H23.0098H26.5098L26.5098 175.084V167.084Z" fill="#095A2E" stroke="black" stroke-width="7"/>
<path d="M26.5044 175.088V171.588H23.0044H15.0044H11.5044V175.088L11.5044 183.088V186.588H15.0044H23.0044H26.5044L26.5044 183.088V175.088Z" fill="#095A2E" stroke="black" stroke-width="7"/>
<path d="M18.5 175.093V171.593H15H7H3.5V175.093L3.5 183.093V186.593H7H15H18.5L18.5 183.093V175.093Z" fill="#095A2E" stroke="black" stroke-width="7"/>
<path d="M218.604 87.0469V83.5469H215.104H207.104H203.604V87.0469V95.0469V98.5469H207.104H215.104H218.604V95.0469V87.0469Z" fill="#EA6387" stroke="black" stroke-width="7"/>
<path d="M218.599 95.0508V91.5508H215.099H207.099H203.599V95.0508V103.051V106.551H207.099H215.099H218.599V103.051V95.0508Z" fill="#EA6387" stroke="black" stroke-width="7"/>
<path d="M218.607 111.06V107.56H215.107H207.107H203.607V111.06V119.06V122.56H207.107H215.107H218.607V119.06V111.06Z" fill="#EE2847" stroke="black" stroke-width="7"/>
<path d="M218.601 119.063V115.563H215.101H207.101H203.601V119.063V127.063V130.563H207.101H215.101H218.601V127.063V119.063Z" fill="#EE2847" stroke="black" stroke-width="7"/>
<path d="M218.605 127.068V123.568H215.105H207.105H203.605V127.068V135.068V138.568H207.105H215.105H218.605V135.068V127.068Z" fill="#EE2847" stroke="black" stroke-width="7"/>
<path d="M218.6 135.072V131.572H215.1H207.1H203.6V135.072V143.072V146.572H207.1H215.1H218.6V143.072V135.072Z" fill="#EE2847" stroke="black" stroke-width="7"/>
<path d="M194.593 71.041V67.541H191.093H183.093H179.593V71.041V79.041V82.541H183.093H191.093H194.593V79.041V71.041Z" fill="#DD1F2C" stroke="black" stroke-width="7"/>
<path d="M186.589 71.0352V67.5352H183.089H175.089H171.589V71.0352V79.0352V82.5352H175.089H183.089H186.589V79.0352V71.0352Z" fill="#DD1F2C" stroke="black" stroke-width="7"/>
<path d="M194.587 79.0449V75.5449H191.087H183.087H179.587V79.0449V87.0449V90.5449H183.087H191.087H194.587V87.0449V79.0449Z" fill="#DD1F2C" stroke="black" stroke-width="7"/>
<path d="M186.583 79.0396V75.5396H183.083H175.083H171.583V79.0396V87.0396V90.5396H175.083H183.083H186.583V87.0396V79.0396Z" fill="#DD1F2C" stroke="black" stroke-width="7"/>
<path d="M210.6 87.0508V83.5508H207.1H199.1H195.6V87.0508V95.0508V98.5508H199.1H207.1H210.6V95.0508V87.0508Z" fill="#EA6387" stroke="black" stroke-width="7"/>
<path d="M202.596 87.0449V83.5449H199.096H191.096H187.596V87.0449V95.0449V98.5449H191.096H199.096H202.596V95.0449V87.0449Z" fill="#FFD108" stroke="black" stroke-width="7"/>
<path d="M194.592 87.0493V83.5493H191.092H183.092H179.592V87.0493V95.0493V98.5493H183.092H191.092H194.592V95.0493V87.0493Z" fill="#DD1F2C" stroke="black" stroke-width="7"/>
<path d="M186.587 87.0435V83.5435H183.087H175.087H171.587V87.0435V95.0435V98.5435H175.087H183.087H186.587V95.0435V87.0435Z" fill="#DD1F2C" stroke="black" stroke-width="7"/>
<path d="M210.594 95.0552V91.5552H207.094H199.094H195.594V95.0552V103.055V106.555H199.094H207.094H210.594V103.055V95.0552Z" fill="#EA6387" stroke="black" stroke-width="7"/>
<path d="M202.59 95.0493V91.5493H199.09H191.09H187.59V95.0493V103.049V106.549H191.09H199.09H202.59V103.049V95.0493Z" fill="#FFD108" stroke="black" stroke-width="7"/>
<path d="M194.586 95.0537V91.5537H191.086H183.086H179.586V95.0537V103.054V106.554H183.086H191.086H194.586V103.054V95.0537Z" fill="#FFD108" stroke="black" stroke-width="7"/>
<path d="M186.582 95.0479V91.5479H183.082H175.082H171.582V95.0479V103.048V106.548H175.082H183.082H186.582V103.048V95.0479Z" fill="#DD1F2C" stroke="black" stroke-width="7"/>
<path d="M210.599 103.06V99.5596H207.099H199.099H195.599V103.06V111.06V114.56H199.099H207.099H210.599V111.06V103.06Z" fill="#FFD108" stroke="black" stroke-width="7"/>
<path d="M202.594 103.054V99.5537H199.094H191.094H187.594V103.054V111.054V114.554H191.094H199.094H202.594V111.054V103.054Z" fill="#FFD108" stroke="black" stroke-width="7"/>
<path d="M194.59 103.058V99.5576H191.09H183.09H179.59V103.058V111.058V114.558H183.09H191.09H194.59V111.058V103.058Z" fill="#FFD108" stroke="black" stroke-width="7"/>
<path d="M186.586 103.052V99.5518H183.086H175.086H171.586V103.052V111.052V114.552H175.086H183.086H186.586V111.052V103.052Z" fill="#FFD108" stroke="black" stroke-width="7"/>
<path d="M210.603 111.063V107.563H207.103H199.103H195.603V111.063V119.063V122.563H199.103H207.103H210.603V119.063V111.063Z" fill="#EE2847" stroke="black" stroke-width="7"/>
<path d="M202.599 111.058V107.558H199.099H191.099H187.599V111.058V119.058V122.558H191.099H199.099H202.599V119.058V111.058Z" fill="#FFD108" stroke="black" stroke-width="7"/>
<path d="M194.594 111.062V107.562H191.094H183.094H179.594V111.062V119.062V122.562H183.094H191.094H194.594V119.062V111.062Z" fill="#FFD108" stroke="black" stroke-width="7"/>
<path d="M186.59 111.056V107.556H183.09H175.09H171.59V111.056V119.056V122.556H175.09H183.09H186.59V119.056V111.056Z" fill="#FFD108" stroke="black" stroke-width="7"/>
<path d="M210.597 119.068V115.568H207.097H199.097H195.597V119.068V127.068V130.568H199.097H207.097H210.597V127.068V119.068Z" fill="#EE2847" stroke="black" stroke-width="7"/>
<path d="M202.593 119.062V115.562H199.093H191.093H187.593V119.062V127.062V130.562H191.093H199.093H202.593V127.062V119.062Z" fill="#EE2847" stroke="black" stroke-width="7"/>
<path d="M194.588 119.066V115.566H191.088H183.088H179.588V119.066V127.066V130.566H183.088H191.088H194.588V127.066V119.066Z" fill="#EE2847" stroke="black" stroke-width="7"/>
<path d="M186.584 119.06V115.56H183.084H175.084H171.584V119.06V127.06V130.56H175.084H183.084H186.584V127.06V119.06Z" fill="#EE2847" stroke="black" stroke-width="7"/>
<path d="M210.601 127.072V123.572H207.101H199.101H195.601V127.072V135.072V138.572H199.101H207.101H210.601V135.072V127.072Z" fill="#EE2847" stroke="black" stroke-width="7"/>
<path d="M202.597 127.066V123.566H199.097H191.097H187.597V127.066V135.066V138.566H191.097H199.097H202.597V135.066V127.066Z" fill="#EE2847" stroke="black" stroke-width="7"/>
<path d="M194.593 127.07V123.57H191.093H183.093H179.593V127.07V135.07V138.57H183.093H191.093H194.593V135.07V127.07Z" fill="#EE2847" stroke="black" stroke-width="7"/>
<path d="M186.588 127.064V123.564H183.088H175.088H171.588V127.064V135.064V138.564H175.088H183.088H186.588V135.064V127.064Z" fill="#DD1F2C" stroke="black" stroke-width="7"/>
<path d="M210.595 135.076V131.576H207.095H199.095H195.595V135.076V143.076V146.576H199.095H207.095H210.595V143.076V135.076Z" fill="#EE2847" stroke="black" stroke-width="7"/>
<path d="M202.591 135.07V131.57H199.091H191.091H187.591V135.07V143.07V146.57H191.091H199.091H202.591V143.07V135.07Z" fill="#EE2847" stroke="black" stroke-width="7"/>
<path d="M194.587 135.074V131.574H191.087H183.087H179.587V135.074V143.074V146.574H183.087H191.087H194.587V143.074V135.074Z" fill="#DD1F2C" stroke="black" stroke-width="7"/>
<path d="M186.669 135.072V131.572H183.169H175.169H171.669V135.072V143.072V146.572H175.169H183.169H186.669V143.072V135.072Z" fill="#DD1F2C" stroke="black" stroke-width="7"/>
<path d="M210.6 143.08V139.58H207.1H199.1H195.6V143.08V151.08V154.58H199.1H207.1H210.6V151.08V143.08Z" fill="#EE2847" stroke="black" stroke-width="7"/>
<path d="M202.595 143.074V139.574H199.095H191.095H187.595V143.074V151.074V154.574H191.095H199.095H202.595V151.074V143.074Z" fill="#DD1F2C" stroke="black" stroke-width="7"/>
<path d="M194.591 143.079V139.579H191.091H183.091H179.591V143.079V151.079V154.579H183.091H191.091H194.591V151.079V143.079Z" fill="#DD1F2C" stroke="black" stroke-width="7"/>
<path d="M186.587 143.073V139.573H183.087H175.087H171.587V143.073V151.073V154.573H175.087H183.087H186.587V151.073V143.073Z" fill="#DD1F2C" stroke="black" stroke-width="7"/>
<path d="M210.594 151.084V147.584H207.094H199.094H195.594V151.084V159.084V162.584H199.094H207.094H210.594V159.084V151.084Z" fill="#DD1F2C" stroke="black" stroke-width="7"/>
<path d="M202.589 151.079V147.579H199.089H191.089H187.589V151.079V159.079V162.579H191.089H199.089H202.589V159.079V151.079Z" fill="#DD1F2C" stroke="black" stroke-width="7"/>
<path d="M194.585 151.083V147.583H191.085H183.085H179.585V151.083V159.083V162.583H183.085H191.085H194.585V159.083V151.083Z" fill="#DD1F2C" stroke="black" stroke-width="7"/>
<path d="M186.581 151.077V147.577H183.081H175.081H171.581V151.077V159.077V162.577H175.081H183.081H186.581V159.077V151.077Z" fill="#DD1F2C" stroke="black" stroke-width="7"/>
<path d="M210.598 159.089V155.589H207.098H199.098H195.598V159.089V167.089V170.589H199.098H207.098H210.598V167.089V159.089Z" fill="#DD1F2C" stroke="black" stroke-width="7"/>
<path d="M202.594 159.083V155.583H199.094H191.094H187.594V159.083V167.083V170.583H191.094H199.094H202.594V167.083V159.083Z" fill="#DD1F2C" stroke="black" stroke-width="7"/>
<path d="M194.589 159.087V155.587H191.089H183.089H179.589V159.087V167.087V170.587H183.089H191.089H194.589V167.087V159.087Z" fill="#DD1F2C" stroke="black" stroke-width="7"/>
<path d="M186.585 159.081V155.581H183.085H175.085H171.585V159.081V167.081V170.581H175.085H183.085H186.585V167.081V159.081Z" fill="#DD1F2C" stroke="black" stroke-width="7"/>
<path d="M210.602 167.093V163.593H207.102H199.102H195.602V167.093V175.093V178.593H199.102H207.102H210.602V175.093V167.093Z" fill="#DD1F2C" stroke="black" stroke-width="7"/>
<path d="M202.598 167.087V163.587H199.098H191.098H187.598V167.087V175.087V178.587H191.098H199.098H202.598V175.087V167.087Z" fill="#DD1F2C" stroke="black" stroke-width="7"/>
<path d="M194.594 167.091V163.591H191.094H183.094H179.594V167.091V175.091V178.591H183.094H191.094H194.594V175.091V167.091Z" fill="#DD1F2C" stroke="black" stroke-width="7"/>
<path d="M186.589 167.085V163.585H183.089H175.089H171.589V167.085V175.085V178.585H175.089H183.089H186.589V175.085V167.085Z" fill="#DD1F2C" stroke="black" stroke-width="7"/>
<path d="M202.592 175.091V171.591H199.092H191.092H187.592V175.091V183.091V186.591H191.092H199.092H202.592V183.091V175.091Z" fill="#DD1F2C" stroke="black" stroke-width="7"/>
<path d="M194.588 175.095V171.595H191.088H183.088H179.588V175.095V183.095V186.595H183.088H191.088H194.588V183.095V175.095Z" fill="#DD1F2C" stroke="black" stroke-width="7"/>
<path d="M186.583 175.09V171.59H183.083H175.083H171.583V175.09V183.09V186.59H175.083H183.083H186.583V183.09V175.09Z" fill="#DD1F2C" stroke="black" stroke-width="7"/>
<path d="M202.596 183.095V179.595H199.096H191.096H187.596V183.095V191.095V194.595H191.096H199.096H202.596V191.095V183.095Z" fill="#DD1F2C" stroke="black" stroke-width="7"/>
<path d="M194.592 183.1V179.6H191.092H183.092H179.592V183.1V191.1V194.6H183.092H191.092H194.592V191.1V183.1Z" fill="#DD1F2C" stroke="black" stroke-width="7"/>
<path d="M186.588 183.094V179.594H183.088H175.088H171.588V183.094V191.094V194.594H175.088H183.088H186.588V191.094V183.094Z" fill="#DD1F2C" stroke="black" stroke-width="7"/>
<path d="M202.59 191.1V187.6H199.09H191.09H187.59V191.1V199.1V202.6H191.09H199.09H202.59V199.1V191.1Z" fill="#DD1F2C" stroke="black" stroke-width="7"/>
<path d="M194.586 191.104V187.604H191.086H183.086H179.586V191.104V199.104V202.604H183.086H191.086H194.586V199.104V191.104Z" fill="#DD1F2C" stroke="black" stroke-width="7"/>
<path d="M186.582 191.098V187.598H183.082H175.082H171.582V191.098V199.098V202.598H175.082H183.082H186.582V199.098V191.098Z" fill="#DD1F2C" stroke="black" stroke-width="7"/>
<path d="M202.595 199.104V195.604H199.095H191.095H187.595V199.104V207.104V210.604H191.095H199.095H202.595V207.104V199.104Z" fill="#DD1F2C" stroke="black" stroke-width="7"/>
<path d="M194.59 199.108V195.608H191.09H183.09H179.59V199.108V207.108V210.608H183.09H191.09H194.59V207.108V199.108Z" fill="#DD1F2C" stroke="black" stroke-width="7"/>
<path d="M186.586 199.102V195.602H183.086H175.086H171.586V199.102V207.102V210.602H175.086H183.086H186.586V207.102V199.102Z" fill="#DD1F2C" stroke="black" stroke-width="7"/>
<path d="M194.595 207.112V203.612H191.095H183.095H179.595V207.112V215.112V218.612H183.095H191.095H194.595V215.112V207.112Z" fill="#DD1F2C" stroke="black" stroke-width="7"/>
<path d="M186.59 207.106V203.606H183.09H175.09H171.59V207.106V215.106V218.606H175.09H183.09H186.59V215.106V207.106Z" fill="#DD1F2C" stroke="black" stroke-width="7"/>
<path d="M186.708 215.117V211.617H183.208H175.208H171.708V215.117V223.117V226.617H175.208H183.208H186.708V223.117V215.117Z" fill="#DD1F2C" stroke="black" stroke-width="7"/>
<path d="M119.057 15V7L111.057 7V15L119.057 15Z" fill="#EE2847"/>
<path d="M111.052 15.0044V7.00439L103.052 7.00439V15.0044L111.052 15.0044Z" fill="#EE2847"/>
<path d="M143.073 23.0117V15.0117L135.073 15.0117V23.0117H143.073Z" fill="#EE2847"/>
<path d="M135.069 23.0059V15.0059L127.069 15.0059V23.0059H135.069Z" fill="#EE2847"/>
<path d="M127.065 23.0098V15.0098L119.065 15.0098V23.0098H127.065Z" fill="#EE2847"/>
<path d="M119.061 23.0044V15.0044L111.061 15.0044V23.0044H119.061Z" fill="#EE2847"/>
<path d="M111.057 23.0083V15.0083L103.057 15.0083V23.0083H111.057Z" fill="#EE2847"/>
<path d="M159.076 31.0176V23.0176H151.076V31.0176H159.076Z" fill="#EE2847"/>
<path d="M151.072 31.0117V23.0117H143.072V31.0117H151.072Z" fill="#EE2847"/>
<path d="M143.067 31.0156V23.0156H135.067V31.0156H143.067Z" fill="#EE2847"/>
<path d="M135.063 31.0098V23.0098H127.063V31.0098H135.063Z" fill="#EE2847"/>
<path d="M127.059 31.0142V23.0142H119.059V31.0142H127.059Z" fill="#EE2847"/>
<path d="M119.055 31.0083V23.0083H111.055V31.0083H119.055Z" fill="#EE2847"/>
<path d="M111.051 31.0127V23.0127H103.051V31.0127H111.051Z" fill="#EE2847"/>
<path d="M159.08 39.0215V31.0215H151.08V39.0215H159.08Z" fill="#EE2847"/>
<path d="M151.076 39.0156V31.0156H143.076V39.0156H151.076Z" fill="#EE2847"/>
<path d="M143.072 39.02V31.02H135.072V39.02H143.072Z" fill="#EE2847"/>
<path d="M135.067 39.0142V31.0142H127.067V39.0142H135.067Z" fill="#EE2847"/>
<path d="M127.063 39.0186V31.0186H119.063V39.0186H127.063Z" fill="#EE2847"/>
<path d="M119.059 39.0127V31.0127H111.059V39.0127H119.059Z" fill="#EE2847"/>
<path d="M111.055 39.0166V31.0166H103.055V39.0166H111.055Z" fill="#EE2847"/>
<path d="M103.051 39.021V31.021H95.0508V39.021H103.051Z" fill="#EE2847"/>
<path d="M87.042 39.0195V31.0195H79.042V39.0195H87.042Z" fill="#DD1F2C"/>
<path d="M79.0381 39.0137V31.0137H71.0381V39.0137H79.0381Z" fill="#DD1F2C"/>
<path d="M159.074 47.0259V39.0259H151.074V47.0259H159.074Z" fill="#EE2847"/>
<path d="M151.07 47.02V39.02H143.07V47.02H151.07Z" fill="#EE2847"/>
<path d="M143.066 47.0244V39.0244H135.066V47.0244H143.066Z" fill="#EE2847"/>
<path d="M135.062 47.0186V39.0186H127.062V47.0186H135.062Z" fill="#EE2847"/>
<path d="M127.058 47.0225V39.0225H119.058V47.0225H127.058Z" fill="#EE2847"/>
<path d="M119.053 47.0166V39.0166H111.053V47.0166H119.053Z" fill="#EE2847"/>
<path d="M111.049 47.021V39.021H103.049V47.021H111.049Z" fill="#EE2847"/>
<path d="M103.045 47.0254V39.0254H95.0449V47.0254H103.045Z" fill="#DD1F2C"/>
<path d="M95.0405 47.0195V39.0195H87.0405V47.0195H95.0405Z" fill="#DD1F2C"/>
<path d="M87.0366 47.0234V39.0234H79.0366V47.0234H87.0366Z" fill="#DD1F2C"/>
<path d="M79.0322 47.0176V39.0176H71.0322V47.0176H79.0322Z" fill="#DD1F2C"/>
<path d="M71.0278 47.022V39.022H63.0278V47.022H71.0278Z" fill="#DD1F2C"/>
<path d="M159.079 55.0298V47.0298H151.079V55.0298H159.079Z" fill="#EE2847"/>
<path d="M151.074 55.0244V47.0244H143.074V55.0244H151.074Z" fill="#EE2847"/>
<path d="M143.07 55.0283V47.0283H135.07V55.0283H143.07Z" fill="#EE2847"/>
<path d="M135.066 55.0225V47.0225H127.066V55.0225H135.066Z" fill="#EE2847"/>
<path d="M127.062 55.0269V47.0269H119.062V55.0269H127.062Z" fill="#EE2847"/>
<path d="M119.058 55.021V47.021H111.058V55.021H119.058Z" fill="#EE2847"/>
<path d="M111.053 55.0254V47.0254H103.053V55.0254H111.053Z" fill="#EE2847"/>
<path d="M103.049 55.0293V47.0293H95.0488V55.0293H103.049Z" fill="#DD1F2C"/>
<path d="M95.0449 55.0234V47.0234H87.0449V55.0234H95.0449Z" fill="#DD1F2C"/>
<path d="M87.0405 55.0278V47.0278H79.0405V55.0278H87.0405Z" fill="#DD1F2C"/>
<path d="M79.0366 55.022V47.022H71.0366V55.022H79.0366Z" fill="#DD1F2C"/>
<path d="M71.0322 55.0264V47.0264H63.0322V55.0264H71.0322Z" fill="#DD1F2C"/>
<path d="M63.0278 55.0303V47.0303H55.0278V55.0303H63.0278Z" fill="#DD1F2C"/>
<path d="M55.0239 55.0244V47.0244H47.0239V55.0244H55.0239Z" fill="#DD1F2C"/>
<path d="M47.0195 55.0288V47.0288H39.0195V55.0288H47.0195Z" fill="#DD1F2C"/>
<path d="M159.072 63.0342V55.0342H151.072V63.0342H159.072Z" fill="#EE2847"/>
<path d="M151.068 63.0283V55.0283H143.068V63.0283H151.068Z" fill="#EE2847"/>
<path d="M143.064 63.0327V55.0327H135.064V63.0327H143.064Z" fill="#EE2847"/>
<path d="M135.06 63.0269V55.0269H127.06V63.0269H135.06Z" fill="#EE2847"/>
<path d="M127.056 63.0308V55.0308H119.056V63.0308H127.056Z" fill="#EE2847"/>
<path d="M119.052 63.0254V55.0254H111.052V63.0254H119.052Z" fill="#EE2847"/>
<path d="M111.047 63.0293V55.0293H103.047V63.0293H111.047Z" fill="#DD1F2C"/>
<path d="M103.043 63.0337V55.0337H95.043V63.0337H103.043Z" fill="#DD1F2C"/>
<path d="M95.0391 63.0278V55.0278H87.0391V63.0278H95.0391Z" fill="#DD1F2C"/>
<path d="M87.0347 63.0322V55.0322H79.0347V63.0322H87.0347Z" fill="#DD1F2C"/>
<path d="M79.0308 63.0264V55.0264H71.0308V63.0264H79.0308Z" fill="#DD1F2C"/>
<path d="M71.0264 63.0303V55.0303H63.0264V63.0303H71.0264Z" fill="#DD1F2C"/>
<path d="M63.022 63.0347V55.0347H55.022V63.0347H63.022Z" fill="#DD1F2C"/>
<path d="M55.0181 63.0288V55.0288H47.0181V63.0288H55.0181Z" fill="#DD1F2C"/>
<path d="M175.085 71.0298V63.0298H167.085V71.0298H175.085Z" fill="#DD1F2C"/>
<path d="M159.077 71.0386V63.0386H151.077V71.0386H159.077Z" fill="#EE2847"/>
<path d="M151.072 71.0327V63.0327H143.072V71.0327H151.072Z" fill="#EE2847"/>
<path d="M143.068 71.0366V63.0366H135.068V71.0366H143.068Z" fill="#EE2847"/>
<path d="M135.064 71.0308V63.0308H127.064V71.0308H135.064Z" fill="#EE2847"/>
<path d="M127.06 71.0352V63.0352H119.06V71.0352H127.06Z" fill="#EE2847"/>
<path d="M119.056 71.0293V63.0293H111.056V71.0293H119.056Z" fill="#EE2847"/>
<path d="M111.052 71.0337V63.0337H103.052V71.0337H111.052Z" fill="#DD1F2C"/>
<path d="M103.047 71.0376V63.0376H95.0474V71.0376H103.047Z" fill="#DD1F2C"/>
<path d="M95.043 71.0322V63.0322H87.043V71.0322H95.043Z" fill="#DD1F2C"/>
<path d="M87.0391 71.0361V63.0361H79.0391V71.0361H87.0391Z" fill="#DD1F2C"/>
<path d="M79.0347 71.0303V63.0303H71.0347V71.0303H79.0347Z" fill="#DD1F2C"/>
<path d="M71.0308 71.0347V63.0347H63.0308V71.0347H71.0308Z" fill="#DD1F2C"/>
<path d="M63.0264 71.0386V63.0386H55.0264V71.0386H63.0264Z" fill="#DD1F2C"/>
<path d="M55.022 71.0332V63.0332H47.022V71.0332H55.022Z" fill="#DD1F2C"/>
<path d="M175.089 79.0342V71.0342H167.089V79.0342H175.089Z" fill="#DD1F2C"/>
<path d="M167.085 79.0386V71.0386H159.085V79.0386H167.085Z" fill="#DD1F2C"/>
<path d="M159.081 79.0425V71.0425H151.081V79.0425H159.081Z" fill="#EE2847"/>
<path d="M151.077 79.0366V71.0366H143.077V79.0366H151.077Z" fill="#EE2847"/>
<path d="M143.072 79.041V71.041H135.072V79.041H143.072Z" fill="#EE2847"/>
<path d="M135.068 79.0352V71.0352H127.068V79.0352H135.068Z" fill="#EE2847"/>
<path d="M127.064 79.0396V71.0396H119.064V79.0396H127.064Z" fill="#EE2847"/>
<path d="M119.06 79.0337V71.0337H111.06V79.0337H119.06Z" fill="#DD1F2C"/>
<path d="M111.056 79.0376V71.0376H103.056V79.0376H111.056Z" fill="#DD1F2C"/>
<path d="M103.052 79.042V71.042H95.0518V79.042H103.052Z" fill="#DD1F2C"/>
<path d="M95.0474 79.0361V71.0361H87.0474V79.0361H95.0474Z" fill="#DD1F2C"/>
<path d="M87.043 79.0405V71.0405H79.043V79.0405H87.043Z" fill="#DD1F2C"/>
<path d="M79.0391 79.0347V71.0347H71.0391V79.0347H79.0391Z" fill="#DD1F2C"/>
<path d="M71.0347 79.0386V71.0386H63.0347V79.0386H71.0347Z" fill="#DD1F2C"/>
<path d="M63.0308 79.043V71.043H55.0308V79.043H63.0308Z" fill="#DD1F2C"/>
<path d="M55.0264 79.0371V71.0371H47.0264V79.0371H55.0264Z" fill="#DD1F2C"/>
<path d="M175.083 87.0386V79.0386H167.083V87.0386H175.083Z" fill="#DD1F2C"/>
<path d="M167.079 87.0425V79.0425H159.079V87.0425H167.079Z" fill="#DD1F2C"/>
<path d="M159.075 87.0469V79.0469H151.075V87.0469H159.075Z" fill="#EE2847"/>
<path d="M151.071 87.041V79.041H143.071V87.041H151.071Z" fill="#EE2847"/>
<path d="M143.067 87.0454V79.0454H135.067V87.0454H143.067Z" fill="#EE2847"/>
<path d="M135.062 87.0396V79.0396H127.062V87.0396H135.062Z" fill="#EE2847"/>
<path d="M127.059 87.0435V79.0435H119.059V87.0435H127.059Z" fill="#EE2847"/>
<path d="M119.054 87.0376V79.0376H111.054V87.0376H119.054Z" fill="#DD1F2C"/>
<path d="M111.05 87.042V79.042H103.05V87.042H111.05Z" fill="#DD1F2C"/>
<path d="M103.046 87.0464V79.0464H95.0459V87.0464H103.046Z" fill="#DD1F2C"/>
<path d="M95.0415 87.0405V79.0405H87.0415V87.0405H95.0415Z" fill="#DD1F2C"/>
<path d="M87.0376 87.0444V79.0444H79.0376V87.0444H87.0376Z" fill="#DD1F2C"/>
<path d="M79.0332 87.0386V79.0386H71.0332V87.0386H79.0332Z" fill="#DD1F2C"/>
<path d="M175.088 95.0425V87.0425H167.088V95.0425H175.088Z" fill="#DD1F2C"/>
<path d="M167.083 95.0469V87.0469H159.083V95.0469H167.083Z" fill="#DD1F2C"/>
<path d="M159.079 95.0508V87.0508H151.079V95.0508H159.079Z" fill="#DD1F2C"/>
<path d="M151.075 95.0454V87.0454H143.075V95.0454H151.075Z" fill="#DD1F2C"/>
<path d="M143.071 95.0493V87.0493H135.071V95.0493H143.071Z" fill="#EE2847"/>
<path d="M135.067 95.0435V87.0435H127.067V95.0435H135.067Z" fill="#EE2847"/>
<path d="M127.062 95.0479V87.0479H119.062V95.0479H127.062Z" fill="#EE2847"/>
<path d="M119.059 95.042V87.042H111.059V95.042H119.059Z" fill="#DD1F2C"/>
<path d="M111.054 95.0464V87.0464H103.054V95.0464H111.054Z" fill="#DD1F2C"/>
<path d="M103.05 95.0503V87.0503H95.0498V95.0503H103.05Z" fill="#DD1F2C"/>
<path d="M95.0459 95.0444V87.0444H87.0459V95.0444H95.0459Z" fill="#DD1F2C"/>
<path d="M87.0415 95.0488V87.0488H79.0415V95.0488H87.0415Z" fill="#DD1F2C"/>
<path d="M175.082 103.047V95.0469H167.082V103.047H175.082Z" fill="#DD1F2C"/>
<path d="M167.078 103.051V95.0508H159.078V103.051H167.078Z" fill="#DD1F2C"/>
<path d="M159.073 103.055V95.0552H151.073V103.055H159.073Z" fill="#DD1F2C"/>
<path d="M151.069 103.049V95.0493H143.069V103.049H151.069Z" fill="#DD1F2C"/>
<path d="M143.065 103.054V95.0537H135.065V103.054H143.065Z" fill="#DD1F2C"/>
<path d="M135.061 103.048V95.0479H127.061V103.048H135.061Z" fill="#EE2847"/>
<path d="M127.057 103.052V95.0518H119.057V103.052H127.057Z" fill="#EE2847"/>
<path d="M119.053 103.046V95.0464H111.053V103.046H119.053Z" fill="#EE2847"/>
<path d="M111.048 103.05V95.0503H103.048V103.05H111.048Z" fill="#DD1F2C"/>
<path d="M103.044 103.055V95.0547H95.0444V103.055H103.044Z" fill="#DD1F2C"/>
<path d="M175.086 111.051V103.051H167.086V111.051H175.086Z" fill="#DD1F2C"/>
<path d="M167.082 111.055V103.055H159.082V111.055H167.082Z" fill="#DD1F2C"/>
<path d="M159.078 111.06V103.06H151.078V111.06H159.078Z" fill="#DD1F2C"/>
<path d="M151.073 111.054V103.054H143.073V111.054H151.073Z" fill="#DD1F2C"/>
<path d="M143.069 111.058V103.058H135.069V111.058H143.069Z" fill="#DD1F2C"/>
<path d="M135.065 111.052V103.052H127.065V111.052H135.065Z" fill="#311112"/>
<path d="M127.061 111.056V103.056H119.061V111.056H127.061Z" fill="#311112"/>
<path d="M119.057 111.05V103.05H111.057V111.05H119.057Z" fill="#EE2847"/>
<path d="M111.053 111.055V103.055H103.053V111.055H111.053Z" fill="#EE2847"/>
<path d="M103.048 111.059V103.059H95.0483V111.059H103.048Z" fill="#EE2847"/>
<path d="M175.09 119.055V111.055H167.09V119.055H175.09Z" fill="#EA6387"/>
<path d="M167.086 119.06V111.06H159.086V119.06H167.086Z" fill="#EA6387"/>
<path d="M159.082 119.063V111.063H151.082V119.063H159.082Z" fill="#EA6387"/>
<path d="M151.078 119.058V111.058H143.078V119.058H151.078Z" fill="#EA6387"/>
<path d="M143.073 119.062V111.062H135.073V119.062H143.073Z" fill="#DD1F2C"/>
<path d="M135.069 119.056V111.056H127.069V119.056H135.069Z" fill="#311112"/>
<path d="M127.065 119.061V111.061H119.065V119.061H127.065Z" fill="#311112"/>
<path d="M119.061 119.055V111.055H111.061V119.055H119.061Z" fill="#311112"/>
<path d="M111.057 119.059V111.059H103.057V119.059H111.057Z" fill="#EE2847"/>
<path d="M103.053 119.063V111.063H95.0527V119.063H103.053Z" fill="#EE2847"/>
<path d="M95.0483 119.057V111.057H87.0483V119.057H95.0483Z" fill="#EE2847"/>
<path d="M87.0444 119.062V111.062H79.0444V119.062H87.0444Z" fill="#095A2E"/>
<path d="M79.04 119.056V111.056H71.04V119.056H79.04Z" fill="#095A2E"/>
<path d="M175.084 127.06V119.06H167.084V127.06H175.084Z" fill="#EE2847"/>
<path d="M167.167 127.067V119.067H159.167V127.067H167.167Z" fill="#DD1F2C"/>
<path d="M159.163 127.061V119.061H151.163V127.061H159.163Z" fill="#DD1F2C"/>
<path d="M151.072 127.062V119.062H143.072V127.062H151.072Z" fill="#EA6387"/>
<path d="M143.068 127.066V119.066H135.068V127.066H143.068Z" fill="#EA6387"/>
<path d="M135.063 127.061V119.061H127.063V127.061H135.063Z" fill="#EA6387"/>
<path d="M127.059 127.064V119.064H119.059V127.064H127.059Z" fill="#EA6387"/>
<path d="M119.055 127.059V119.059H111.055V127.059H119.055Z" fill="#311112"/>
<path d="M111.051 127.063V119.063H103.051V127.063H111.051Z" fill="#EE2847"/>
<path d="M103.047 127.067V119.067H95.0469V127.067H103.047Z" fill="#EE2847"/>
<path d="M95.0425 127.062V119.062H87.0425V127.062H95.0425Z" fill="#EE2847"/>
<path d="M87.0386 127.065V119.065H79.0386V127.065H87.0386Z" fill="#EE2847"/>
<path d="M79.0342 127.06V119.06H71.0342V127.06H79.0342Z" fill="#095A2E"/>
<path d="M71.0298 127.064V119.064H63.0298V127.064H71.0298Z" fill="#095A2E"/>
<path d="M174.998 135.005V127.005H166.998V135.005H174.998Z" fill="#DD1F2C"/>
<path d="M167.171 135.071V127.071H159.171V135.071H167.171Z" fill="#DD1F2C"/>
<path d="M159.167 135.065V127.065H151.167V135.065H159.167Z" fill="#DD1F2C"/>
<path d="M151.076 135.066V127.066H143.076V135.066H151.076Z" fill="#EE2847"/>
<path d="M143.072 135.07V127.07H135.072V135.07H143.072Z" fill="#311112"/>
<path d="M135.068 135.064V127.064H127.068V135.064H135.068Z" fill="#311112"/>
<path d="M127.063 135.069V127.069H119.063V135.069H127.063Z" fill="#311112"/>
<path d="M119.059 135.063V127.063H111.059V135.063H119.059Z" fill="#EE2847"/>
<path d="M111.055 135.067V127.067H103.055V135.067H111.055Z" fill="#EE2847"/>
<path d="M103.051 135.071V127.071H95.0508V135.071H103.051Z" fill="#EE2847"/>
<path d="M95.0469 135.065V127.065H87.0469V135.065H95.0469Z" fill="#EE2847"/>
<path d="M87.0425 135.07V127.07H79.0425V135.07H87.0425Z" fill="#EE2847"/>
<path d="M71.0342 135.068V127.068H63.0342V135.068H71.0342Z" fill="#095A2E"/>
<path d="M63.0298 135.072V127.072H55.0298V135.072H63.0298Z" fill="#095A2E"/>
<path d="M175.169 143.005V135.005H167.169V143.005H175.169Z" fill="#DD1F2C"/>
<path d="M167.079 143.072V135.072H159.079V143.072H167.079Z" fill="#DD1F2C"/>
<path d="M159.075 143.076V135.076H151.075V143.076H159.075Z" fill="#EE2847"/>
<path d="M151.07 143.07V135.07H143.07V143.07H151.07Z" fill="#EE2847"/>
<path d="M143.066 143.075V135.075H135.066V143.075H143.066Z" fill="#EE2847"/>
<path d="M135.062 143.069V135.069H127.062V143.069H135.062Z" fill="#EE2847"/>
<path d="M127.058 143.073V135.073H119.058V143.073H127.058Z" fill="#EE2847"/>
<path d="M119.054 143.067V135.067H111.054V143.067H119.054Z" fill="#EE2847"/>
<path d="M111.049 143.071V135.071H103.049V143.071H111.049Z" fill="#EE2847"/>
<path d="M103.045 143.076V135.076H95.0449V143.076H103.045Z" fill="#EE2847"/>
<path d="M95.041 143.07V135.07H87.041V143.07H95.041Z" fill="#EE2847"/>
<path d="M87.0366 143.074V135.074H79.0366V143.074H87.0366Z" fill="#EE2847"/>
<path d="M63.0244 143.077V135.077H55.0244V143.077H63.0244Z" fill="#095A2E"/>
<path d="M55.02 143.071V135.071H47.02V143.071H55.02Z" fill="#095A2E"/>
<path d="M175.087 151.072V143.072H167.087V151.072H175.087Z" fill="#DD1F2C"/>
<path d="M167.083 151.076V143.076H159.083V151.076H167.083Z" fill="#DD1F2C"/>
<path d="M159.079 151.081V143.081H151.079V151.081H159.079Z" fill="#EE2847"/>
<path d="M151.075 151.075V143.075H143.075V151.075H151.075Z" fill="#EE2847"/>
<path d="M143.07 151.079V143.079H135.07V151.079H143.07Z" fill="#EE2847"/>
<path d="M135.066 151.073V143.073H127.066V151.073H135.066Z" fill="#EE2847"/>
<path d="M127.062 151.077V143.077H119.062V151.077H127.062Z" fill="#EE2847"/>
<path d="M119.058 151.071V143.071H111.058V151.071H119.058Z" fill="#EE2847"/>
<path d="M111.054 151.076V143.076H103.054V151.076H111.054Z" fill="#EE2847"/>
<path d="M103.049 151.08V143.08H95.0493V151.08H103.049Z" fill="#EE2847"/>
<path d="M95.0449 151.074V143.074H87.0449V151.074H95.0449Z" fill="#EE2847"/>
<path d="M87.041 151.078V143.078H79.041V151.078H87.041Z" fill="#EE2847"/>
<path d="M79.0366 151.072V143.072H71.0366V151.072H79.0366Z" fill="#EE2847"/>
<path d="M55.0244 151.075V143.075H47.0244V151.075H55.0244Z" fill="#095A2E"/>
<path d="M47.02 151.079V143.079H39.02V151.079H47.02Z" fill="#095A2E"/>
<path d="M175.081 159.076V151.076H167.081V159.076H175.081Z" fill="#DD1F2C"/>
<path d="M167.077 159.081V151.081H159.077V159.081H167.077Z" fill="#DD1F2C"/>
<path d="M159.073 159.084V151.084H151.073V159.084H159.073Z" fill="#EE2847"/>
<path d="M151.069 159.079V151.079H143.069V159.079H151.069Z" fill="#EE2847"/>
<path d="M143.064 159.083V151.083H135.064V159.083H143.064Z" fill="#EE2847"/>
<path d="M135.061 159.077V151.077H127.061V159.077H135.061Z" fill="#EE2847"/>
<path d="M127.056 159.082V151.082H119.056V159.082H127.056Z" fill="#EE2847"/>
<path d="M119.052 159.076V151.076H111.052V159.076H119.052Z" fill="#EE2847"/>
<path d="M111.048 159.08V151.08H103.048V159.08H111.048Z" fill="#EE2847"/>
<path d="M103.043 159.084V151.084H95.0435V159.084H103.043Z" fill="#EE2847"/>
<path d="M95.0391 159.078V151.078H87.0391V159.078H95.0391Z" fill="#EE2847"/>
<path d="M87.0352 159.083V151.083H79.0352V159.083H87.0352Z" fill="#EE2847"/>
<path d="M79.0308 159.077V151.077H71.0308V159.077H79.0308Z" fill="#EE2847"/>
<path d="M71.0269 159.081V151.081H63.0269V159.081H71.0269Z" fill="#EE2847"/>
<path d="M47.0142 159.083V151.083H39.0142V159.083H47.0142Z" fill="#095A2E"/>
<path d="M175.085 167.081V159.081H167.085V167.081H175.085Z" fill="#DD1F2C"/>
<path d="M167.081 167.084V159.084H159.081V167.084H167.081Z" fill="#DD1F2C"/>
<path d="M159.077 167.089V159.089H151.077V167.089H159.077Z" fill="#EE2847"/>
<path d="M151.073 167.083V159.083H143.073V167.083H151.073Z" fill="#EE2847"/>
<path d="M143.069 167.087V159.087H135.069V167.087H143.069Z" fill="#EE2847"/>
<path d="M135.064 167.082V159.082H127.064V167.082H135.064Z" fill="#EE2847"/>
<path d="M127.06 167.085V159.085H119.06V167.085H127.06Z" fill="#EE2847"/>
<path d="M119.056 167.08V159.08H111.056V167.08H119.056Z" fill="#EE2847"/>
<path d="M111.052 167.084V159.084H103.052V167.084H111.052Z" fill="#EE2847"/>
<path d="M103.048 167.088V159.088H95.0479V167.088H103.048Z" fill="#EE2847"/>
<path d="M95.0435 167.083V159.083H87.0435V167.083H95.0435Z" fill="#EE2847"/>
<path d="M87.0391 167.086V159.086H79.0391V167.086H87.0391Z" fill="#EE2847"/>
<path d="M79.0352 167.081V159.081H71.0352V167.081H79.0352Z" fill="#EE2847"/>
<path d="M71.0308 167.085V159.085H63.0308V167.085H71.0308Z" fill="#EE2847"/>
<path d="M175.09 175.084V167.084H167.09V175.084H175.09Z" fill="#DD1F2C"/>
<path d="M167.085 175.089V167.089H159.085V175.089H167.085Z" fill="#DD1F2C"/>
<path d="M159.081 175.093V167.093H151.081V175.093H159.081Z" fill="#EE2847"/>
<path d="M151.077 175.087V167.087H143.077V175.087H151.077Z" fill="#EE2847"/>
<path d="M143.073 175.091V167.091H135.073V175.091H143.073Z" fill="#EE2847"/>
<path d="M135.069 175.085V167.085H127.069V175.085H135.069Z" fill="#EE2847"/>
<path d="M127.064 175.09V167.09H119.064V175.09H127.064Z" fill="#EE2847"/>
<path d="M119.06 175.084V167.084H111.06V175.084H119.06Z" fill="#EE2847"/>
<path d="M111.056 175.088V167.088H103.056V175.088H111.056Z" fill="#EE2847"/>
<path d="M103.052 175.092V167.092H95.0518V175.092H103.052Z" fill="#EE2847"/>
<path d="M95.0479 175.086V167.086H87.0479V175.086H95.0479Z" fill="#EE2847"/>
<path d="M87.0435 175.091V167.091H79.0435V175.091H87.0435Z" fill="#EE2847"/>
<path d="M79.0391 175.085V167.085H71.0391V175.085H79.0391Z" fill="#EE2847"/>
<path d="M175.084 183.089V175.089H167.084V183.089H175.084Z" fill="#DD1F2C"/>
<path d="M167.08 183.093V175.093H159.08V183.093H167.08Z" fill="#DD1F2C"/>
<path d="M159.076 183.097V175.097H151.076V183.097H159.076Z" fill="#DD1F2C"/>
<path d="M151.071 183.091V175.091H143.071V183.091H151.071Z" fill="#EE2847"/>
<path d="M143.067 183.096V175.096H135.067V183.096H143.067Z" fill="#EE2847"/>
<path d="M135.063 183.09V175.09H127.063V183.09H135.063Z" fill="#EE2847"/>
<path d="M127.059 183.094V175.094H119.059V183.094H127.059Z" fill="#EE2847"/>
<path d="M119.055 183.088V175.088H111.055V183.088H119.055Z" fill="#EE2847"/>
<path d="M111.05 183.092V175.092H103.05V183.092H111.05Z" fill="#EE2847"/>
<path d="M103.046 183.097V175.097H95.0459V183.097H103.046Z" fill="#EE2847"/>
<path d="M95.042 183.091V175.091H87.042V183.091H95.042Z" fill="#EE2847"/>
<path d="M175.088 191.093V183.093H167.088V191.093H175.088Z" fill="#DD1F2C"/>
<path d="M167.084 191.097V183.097H159.084V191.097H167.084Z" fill="#DD1F2C"/>
<path d="M135.067 191.094V183.094H127.067V191.094H135.067Z" fill="#EE2847"/>
<path d="M127.063 191.098V183.098H119.063V191.098H127.063Z" fill="#EE2847"/>
<path d="M119.059 191.092V183.092H111.059V191.092H119.059Z" fill="#EE2847"/>
<path d="M175.082 199.097V191.097H167.082V199.097H175.082Z" fill="#DD1F2C"/>
<path d="M175.086 207.102V199.102H167.086V207.102H175.086Z" fill="#DD1F2C"/>
<path d="M175.091 215.105V207.105H167.091V215.105H175.091Z" fill="#DD1F2C"/>
<path d="M39.0098 159.078V151.078H31.0098V159.078H39.0098Z" fill="#095A2E"/>
<path d="M39.0142 167.082V159.082H31.0142V167.082H39.0142Z" fill="#095A2E"/>
<path d="M31.0098 167.086V159.086H23.0098V167.086H31.0098Z" fill="#095A2E"/>
<path d="M31.0142 175.09V167.09H23.0142V175.09H31.0142Z" fill="#095A2E"/>
<path d="M23.0098 175.084V167.084H15.0098L15.0098 175.084H23.0098Z" fill="#095A2E"/>
<path d="M23.0044 183.088V175.088H15.0044L15.0044 183.088H23.0044Z" fill="#095A2E"/>
<path d="M15 183.093L15 175.093H7L7 183.093H15Z" fill="#095A2E"/>
<path d="M215.104 95.0469V87.0469H207.104V95.0469H215.104Z" fill="#EA6387"/>
<path d="M215.099 103.051V95.0508H207.099V103.051H215.099Z" fill="#EA6387"/>
<path d="M215.107 119.06V111.06H207.107V119.06H215.107Z" fill="#EE2847"/>
<path d="M215.101 127.063V119.063H207.101V127.063H215.101Z" fill="#EE2847"/>
<path d="M215.105 135.068V127.068H207.105V135.068H215.105Z" fill="#EE2847"/>
<path d="M215.1 143.072V135.072H207.1V143.072H215.1Z" fill="#EE2847"/>
<path d="M191.093 79.041V71.041H183.093V79.041H191.093Z" fill="#DD1F2C"/>
<path d="M183.089 79.0352V71.0352H175.089V79.0352H183.089Z" fill="#DD1F2C"/>
<path d="M191.087 87.0449V79.0449H183.087V87.0449H191.087Z" fill="#DD1F2C"/>
<path d="M183.083 87.0396V79.0396H175.083V87.0396H183.083Z" fill="#DD1F2C"/>
<path d="M207.1 95.0508V87.0508H199.1V95.0508H207.1Z" fill="#EA6387"/>
<path d="M199.096 95.0449V87.0449H191.096V95.0449H199.096Z" fill="#FFD108"/>
<path d="M191.092 95.0493V87.0493H183.092V95.0493H191.092Z" fill="#DD1F2C"/>
<path d="M183.087 95.0435V87.0435H175.087V95.0435H183.087Z" fill="#DD1F2C"/>
<path d="M207.094 103.055V95.0552H199.094V103.055H207.094Z" fill="#EA6387"/>
<path d="M199.09 103.049V95.0493H191.09V103.049H199.09Z" fill="#FFD108"/>
<path d="M191.086 103.054V95.0537H183.086V103.054H191.086Z" fill="#FFD108"/>
<path d="M183.082 103.048V95.0479H175.082V103.048H183.082Z" fill="#DD1F2C"/>
<path d="M207.099 111.06V103.06H199.099V111.06H207.099Z" fill="#FFD108"/>
<path d="M199.094 111.054V103.054H191.094V111.054H199.094Z" fill="#FFD108"/>
<path d="M191.09 111.058V103.058H183.09V111.058H191.09Z" fill="#FFD108"/>
<path d="M183.086 111.052V103.052H175.086V111.052H183.086Z" fill="#FFD108"/>
<path d="M207.103 119.063V111.063H199.103V119.063H207.103Z" fill="#EE2847"/>
<path d="M199.099 119.058V111.058H191.099V119.058H199.099Z" fill="#FFD108"/>
<path d="M191.094 119.062V111.062H183.094V119.062H191.094Z" fill="#FFD108"/>
<path d="M183.09 119.056V111.056H175.09V119.056H183.09Z" fill="#FFD108"/>
<path d="M207.097 127.068V119.068H199.097V127.068H207.097Z" fill="#EE2847"/>
<path d="M199.093 127.062V119.062H191.093V127.062H199.093Z" fill="#EE2847"/>
<path d="M191.088 127.066V119.066H183.088V127.066H191.088Z" fill="#EE2847"/>
<path d="M183.084 127.06V119.06H175.084V127.06H183.084Z" fill="#EE2847"/>
<path d="M207.101 135.072V127.072H199.101V135.072H207.101Z" fill="#EE2847"/>
<path d="M199.097 135.066V127.066H191.097V135.066H199.097Z" fill="#EE2847"/>
<path d="M191.093 135.07V127.07H183.093V135.07H191.093Z" fill="#EE2847"/>
<path d="M183.088 135.064V127.064H175.088V135.064H183.088Z" fill="#DD1F2C"/>
<path d="M207.095 143.076V135.076H199.095V143.076H207.095Z" fill="#EE2847"/>
<path d="M199.091 143.07V135.07H191.091V143.07H199.091Z" fill="#EE2847"/>
<path d="M191.087 143.074V135.074H183.087V143.074H191.087Z" fill="#DD1F2C"/>
<path d="M183.169 143.072V135.072H175.169V143.072H183.169Z" fill="#DD1F2C"/>
<path d="M207.1 151.08V143.08H199.1V151.08H207.1Z" fill="#EE2847"/>
<path d="M199.095 151.074V143.074H191.095V151.074H199.095Z" fill="#DD1F2C"/>
<path d="M191.091 151.079V143.079H183.091V151.079H191.091Z" fill="#DD1F2C"/>
<path d="M183.087 151.073V143.073H175.087V151.073H183.087Z" fill="#DD1F2C"/>
<path d="M207.094 159.084V151.084H199.094V159.084H207.094Z" fill="#DD1F2C"/>
<path d="M199.089 159.079V151.079H191.089V159.079H199.089Z" fill="#DD1F2C"/>
<path d="M191.085 159.083V151.083H183.085V159.083H191.085Z" fill="#DD1F2C"/>
<path d="M183.081 159.077V151.077H175.081V159.077H183.081Z" fill="#DD1F2C"/>
<path d="M207.098 167.089V159.089H199.098V167.089H207.098Z" fill="#DD1F2C"/>
<path d="M199.094 167.083V159.083H191.094V167.083H199.094Z" fill="#DD1F2C"/>
<path d="M191.089 167.087V159.087H183.089V167.087H191.089Z" fill="#DD1F2C"/>
<path d="M183.085 167.081V159.081H175.085V167.081H183.085Z" fill="#DD1F2C"/>
<path d="M207.102 175.093V167.093H199.102V175.093H207.102Z" fill="#DD1F2C"/>
<path d="M199.098 175.087V167.087H191.098V175.087H199.098Z" fill="#DD1F2C"/>
<path d="M191.094 175.091V167.091H183.094V175.091H191.094Z" fill="#DD1F2C"/>
<path d="M183.089 175.085V167.085H175.089V175.085H183.089Z" fill="#DD1F2C"/>
<path d="M199.092 183.091V175.091H191.092V183.091H199.092Z" fill="#DD1F2C"/>
<path d="M191.088 183.095V175.095H183.088V183.095H191.088Z" fill="#DD1F2C"/>
<path d="M183.083 183.09V175.09H175.083V183.09H183.083Z" fill="#DD1F2C"/>
<path d="M199.096 191.095V183.095H191.096V191.095H199.096Z" fill="#DD1F2C"/>
<path d="M191.092 191.1V183.1H183.092V191.1H191.092Z" fill="#DD1F2C"/>
<path d="M183.088 191.094V183.094H175.088V191.094H183.088Z" fill="#DD1F2C"/>
<path d="M199.09 199.1V191.1H191.09V199.1H199.09Z" fill="#DD1F2C"/>
<path d="M191.086 199.104V191.104H183.086V199.104H191.086Z" fill="#DD1F2C"/>
<path d="M183.082 199.098V191.098H175.082V199.098H183.082Z" fill="#DD1F2C"/>
<path d="M199.095 207.104V199.104H191.095V207.104H199.095Z" fill="#DD1F2C"/>
<path d="M191.09 207.108V199.108H183.09V207.108H191.09Z" fill="#DD1F2C"/>
<path d="M183.086 207.102V199.102H175.086V207.102H183.086Z" fill="#DD1F2C"/>
<path d="M191.095 215.112V207.112H183.095V215.112H191.095Z" fill="#DD1F2C"/>
<path d="M183.09 215.106V207.106H175.09V215.106H183.09Z" fill="#DD1F2C"/>
<path d="M183.208 223.117V215.117H175.208V223.117H183.208Z" fill="#DD1F2C"/>
</svg>
