<svg width="279" height="55" viewBox="0 0 279 55" fill="none" xmlns="http://www.w3.org/2000/svg">
<rect x="0.433594" width="278.544" height="54.0049" rx="27.0025" fill="#A3EC47"/>
<path d="M127.302 35.103H124.373L118.67 25.7476V35.103H115.74V20.8843H118.67L124.382 30.2593V20.8843L127.302 20.8843V35.103ZM138.416 28.9409H132.791V32.7495H139.392V35.103H129.861V20.8843H139.373V23.2573H132.791V26.646H138.416V28.9409ZM146.199 25.7866L148.865 20.8843H152.234L148.093 27.9351L152.341 35.103H148.933L146.199 30.1226L143.464 35.103H140.056L144.304 27.9351L140.164 20.8843H143.533L146.199 25.7866ZM164.529 23.2573H160.173V35.103H157.244V23.2573H152.947V20.8843H164.529V23.2573Z" fill="black"/>
</svg>
